<svg width="34" height="34" viewBox="0 0 34 34" fill="none" xmlns="http://www.w3.org/2000/svg">
<path d="M14.9238 15.892L10.0341 13.071M16.6164 6.01855V6.95888V6.01855ZM5.99072 16.6442H6.93105H5.99072ZM27.2421 16.6442H26.3017H27.2421ZM16.6164 27.2699V26.3296V27.2699ZM24.6091 8.93356L18.0269 15.5158L24.6091 8.93356Z" stroke="#E12656" stroke-width="1.8" stroke-miterlimit="22.9256" stroke-linecap="round" stroke-linejoin="round"/>
<path d="M16.6165 14.7637C15.5821 14.7637 14.7358 15.61 14.7358 16.6443C14.7358 17.6787 15.5821 18.525 16.6165 18.525C17.6508 18.525 18.4971 17.6787 18.4971 16.6443C18.4971 15.61 17.6508 14.7637 16.6165 14.7637Z" stroke="#E12656" stroke-width="1.8" stroke-miterlimit="22.9256"/>
<path d="M31.0035 29.2445L24.8913 30.467L26.4899 24.4489M12.1029 1.69303C18.8733 -0.37568 26.3959 2.25723 30.1572 8.65144C34.3886 15.7979 32.2259 24.9191 25.4555 29.5266M21.2241 31.7834C14.4537 33.9462 6.93115 31.2192 3.16985 24.825C-1.06161 17.7726 1.10114 8.65144 7.87147 4.04385M2.22952 4.60804L8.34163 3.38562L6.64905 9.4037" stroke="#E12656" stroke-width="1.8" stroke-miterlimit="22.9256" stroke-linecap="round" stroke-linejoin="round"/>
</svg>
