<svg width="33" height="34" viewBox="0 0 33 34" fill="none" xmlns="http://www.w3.org/2000/svg">
<path d="M28.2243 20.7825L28.224 20.7828L25.3592 22.675C25.3591 22.6751 25.359 22.6752 25.3588 22.6753C25.0183 22.898 24.9269 23.3524 25.1529 23.6886L25.1532 23.6892C25.3808 24.0246 25.8368 24.1132 26.1753 23.8921L26.176 23.8917L29.0409 22.001C29.041 22.0009 29.0411 22.0009 29.0412 22.0008C29.5237 21.6849 30.1766 21.8141 30.4975 22.2878C30.8174 22.7601 30.6877 23.4008 30.2063 23.7177L21.5687 29.4025L21.5683 29.4028C21.4851 29.4579 21.3951 29.5007 21.3014 29.5285L21.2996 29.5291C21.1606 29.5724 21.0119 29.585 20.8632 29.5674L12.5586 27.2246C12.5307 27.2156 12.5019 27.2092 12.4743 27.2049C11.8265 27.0882 11.1689 27.222 10.6196 27.5829L10.6194 27.583L10.2481 27.8279L7.21431 23.3421L10.9362 20.8819C10.9363 20.8819 10.9364 20.8818 10.9364 20.8818C11.4605 20.5375 12.0869 20.409 12.7067 20.5199L21.6577 23.35L21.6798 23.357H21.6828C22.2155 23.5353 22.5121 24.096 22.3548 24.6138C22.2772 24.8681 22.1013 25.0781 21.8579 25.2064C21.6117 25.3336 21.3298 25.3612 21.0596 25.284C21.0528 25.2816 21.0453 25.2794 21.0369 25.2777L21.0301 25.2759L16.6535 24.1332L16.6534 24.1332C16.2621 24.0314 15.8563 24.2596 15.7514 24.6509C15.6946 24.862 15.7388 25.0763 15.8509 25.2442L15.8517 25.2454C15.9491 25.3883 16.0965 25.4972 16.2758 25.5441L16.2759 25.5441L20.6524 26.6868L20.6711 26.6917H20.6713C21.302 26.8667 21.9665 26.8 22.5468 26.4979C23.1429 26.1887 23.5769 25.6669 23.7699 25.0346L23.7699 25.0345C24.1622 23.7458 23.4143 22.3683 22.11 21.9602L22.0881 21.9534H22.0866L13.1637 19.1334L13.1634 19.1333C13.1325 19.1221 13.0902 19.1067 13.0421 19.0976C12.0222 18.8963 10.9836 19.0997 10.1176 19.6687L10.1173 19.669L6.39425 22.1293L6.13752 21.7491L6.13733 21.7488C5.90976 21.4134 5.45381 21.3248 5.11522 21.5459L5.11485 21.5461L1.18163 24.1309L1.18145 24.131C0.841562 24.3551 0.749348 24.8075 0.975622 25.1442L0.975878 25.1446L4.18628 29.8907L4.1864 29.8909C4.41397 30.2263 4.86992 30.3149 5.20851 30.0938L5.20906 30.0935C5.54895 29.8694 5.64116 29.4169 5.41489 29.0802L5.41463 29.0798L2.61369 24.9392L5.31636 23.162L9.69219 29.6322L6.98951 31.4093L6.931 31.3228L6.93087 31.3226C6.70331 30.9872 6.24736 30.8986 5.90876 31.1197L5.90821 31.1201C5.56833 31.3441 5.47611 31.7966 5.70239 32.1333L5.70273 32.1338L6.17196 32.8259L6.17199 32.826C6.39955 33.1614 6.8555 33.25 7.1941 33.0289L7.19447 33.0286L11.1277 30.4439L11.1279 30.4438C11.4678 30.2197 11.56 29.7672 11.3337 29.4305L11.3334 29.4302L11.07 29.0406L11.4382 28.7978C11.4383 28.7978 11.4383 28.7977 11.4384 28.7977C11.4384 28.7977 11.4384 28.7977 11.4384 28.7977C11.6581 28.6533 11.9221 28.5964 12.1826 28.6372L20.4946 30.9823L20.5072 30.9865C20.5289 30.9936 20.5527 30.9973 20.5604 30.9985C20.5609 30.9986 20.5616 30.9988 20.5625 30.999C20.5664 31.0001 20.5782 31.0034 20.5918 31.0056L20.6006 31.0071L20.6006 31.0076C20.6015 31.0077 20.6025 31.0079 20.6035 31.008C20.9835 31.0652 21.376 31.0363 21.7401 30.9245L21.7402 30.9244C21.9698 30.8538 22.1861 30.7507 22.3871 30.6192L22.3875 30.619L31.0251 24.9325C32.1844 24.1694 32.4993 22.6181 31.7259 21.4735C30.9531 20.3301 29.3824 20.0221 28.2243 20.7825ZM20.5506 30.9923C20.5519 30.9923 20.5513 30.9923 20.5495 30.9923H20.5506ZM20.4489 30.951C20.4482 30.9503 20.448 30.9501 20.4487 30.9508L20.4489 30.951ZM20.6007 31.0068C20.5971 31.0064 20.5942 31.006 20.5918 31.0056C20.5915 31.0055 20.5911 31.0054 20.5907 31.0054C20.5854 31.0044 20.5812 31.0034 20.5788 31.0027L20.5736 31.0012C20.5729 31.001 20.5723 31.0008 20.5728 31.0009L20.6007 31.0068Z" fill="#E12656" stroke="#E12656" stroke-width="0.3"/>
<path d="M22.9976 6.82332C22.8245 6.68396 22.6143 6.57377 22.3844 6.5024V9.12501C23.1418 9.28466 23.6208 9.53338 23.7199 9.58862C24.723 10.1399 25.3419 11.0902 25.3602 12.1319L25.3602 12.132C25.3675 12.5656 25.2743 12.9869 25.0811 13.3822C24.8993 13.755 24.6397 14.0891 24.3093 14.3738C23.778 14.8328 23.115 15.1276 22.3851 15.2341L22.3947 15.7806C22.3947 15.7807 22.3947 15.7808 22.3947 15.7809L22.3947 15.7812L22.2448 15.7838C22.2482 15.942 22.1878 16.0899 22.0774 16.2039C21.967 16.3178 21.8187 16.3807 21.6582 16.3841L22.9976 6.82332ZM22.9976 6.82332C23.3106 7.07578 23.4773 7.39833 23.4818 7.72889L23.4818 7.72929C23.4883 8.13341 23.8267 8.45674 24.2321 8.45674H24.2407V8.45675L24.243 8.45672C24.6537 8.45036 24.9855 8.1151 24.9789 7.70408L24.9789 7.70399C24.9661 6.92082 24.5939 6.20009 23.9431 5.67652L23.9431 5.67652C23.5139 5.33128 22.9903 5.0948 22.4237 4.98962L22.4137 4.40166L22.2637 4.40409L22.4137 4.40155L22.4137 4.40162C22.4072 3.99752 22.0688 3.67422 21.6634 3.67422H21.6548V3.6742L21.6525 3.67424C21.2418 3.68059 20.91 4.01585 20.9165 4.42687L20.9165 4.42704L20.9265 5.01584C20.3639 5.14076 19.849 5.3939 19.4316 5.75279L19.4316 5.75287C18.7985 6.29818 18.454 7.03168 18.4669 7.81436L18.4669 7.81441C18.4798 8.57948 18.8371 9.28584 19.4591 9.80601L19.4589 9.80621L19.4662 9.81156L19.4701 9.81451C19.8345 10.1116 20.3039 10.298 20.9269 10.4065V13.6549C20.5999 13.538 20.3211 13.357 20.113 13.1287L20.1129 13.1285C19.8693 12.8619 19.741 12.5511 19.7364 12.2293L19.7364 12.2291C19.7298 11.8249 19.3914 11.5016 18.986 11.5016H18.9774V11.5016L18.9742 11.5017C18.7757 11.5059 18.5893 11.5842 18.4505 11.7275C18.3135 11.8689 18.2368 12.0549 18.2409 12.2544C18.2482 12.6869 18.358 13.1045 18.5636 13.4936L18.5637 13.4937C18.7581 13.861 19.0285 14.1862 19.3699 14.4587C19.8005 14.8069 20.3251 15.0541 20.8894 15.1808L20.901 15.8067C20.901 15.8067 20.901 15.8068 20.901 15.8069M24.2321 8.30674H24.2407L23.0918 6.70657C23.4334 6.98205 23.6266 7.34425 23.6317 7.72687C23.6369 8.04656 23.906 8.30674 24.2321 8.30674Z" fill="#E12656" stroke="#E12656" stroke-width="0.3"/>
<path d="M30.4526 6.50321L30.4526 6.50316C29.979 5.4002 29.302 4.41138 28.4396 3.56126C27.5772 2.71114 26.5743 2.04401 25.456 1.57747L25.4559 1.57745C24.2989 1.09533 23.0682 0.85 21.8014 0.85C20.5345 0.85 19.3056 1.09534 18.1469 1.57742L18.1468 1.57747C17.0284 2.04401 16.0255 2.71114 15.1631 3.56126C14.3024 4.40975 13.6254 5.40029 13.1519 6.50316L13.1519 6.50321C12.6625 7.6443 12.4135 8.85818 12.4135 10.1079C12.4135 11.3576 12.6626 12.5698 13.1519 13.7125L13.1519 13.7126C13.6254 14.8156 14.3024 15.8044 15.1649 16.6545C16.0273 17.5046 17.0302 18.1717 18.1485 18.6383L18.1486 18.6383C19.3056 19.1204 20.5362 19.3657 21.8031 19.3657C23.07 19.3657 24.2989 19.1204 25.4575 18.6383L25.4577 18.6383C26.576 18.1717 27.5789 17.5046 28.4413 16.6545C29.3038 15.8044 29.9808 14.8156 30.4543 13.7126L30.4543 13.7125C30.9437 12.5714 31.1927 11.3576 31.1927 10.1079V10.1077C31.191 8.85811 30.9419 7.64431 30.4526 6.50321ZM29.749 10.1062C29.749 14.4222 26.1868 17.9366 21.8031 17.9366C17.4194 17.9366 13.8572 14.4222 13.8572 10.1062C13.8572 5.79015 17.4194 2.27573 21.8031 2.27573C26.1851 2.27573 29.749 5.79017 29.749 10.1062Z" fill="#E12656" stroke="#E12656" stroke-width="0.3"/>
</svg>
