<svg width="12" height="11" viewBox="0 0 12 11" fill="none" xmlns="http://www.w3.org/2000/svg">
<path d="M9.598 10.2121C7.20009 10.2121 4.80218 10.2121 2.40427 10.2121C2.39325 10.2085 2.38102 10.2037 2.37001 10.2025C1.71303 10.1188 1.25914 9.56308 1.32643 8.91766C1.33989 8.7826 1.36191 8.64994 1.38148 8.51488C1.461 7.97703 1.5442 7.44039 1.62005 6.90254C1.68244 6.45553 1.95037 6.15673 2.3957 6.03721C2.61102 5.97984 2.82635 5.91649 3.03311 5.83522C3.44418 5.67387 3.79163 5.42646 4.03754 5.05714C4.27121 4.70694 4.36542 4.31491 4.39722 3.90496C4.4009 3.85715 4.41191 3.83325 4.46451 3.82847C4.7092 3.80576 4.95388 3.76631 5.19979 3.75914C5.64757 3.7448 6.09656 3.73643 6.54434 3.74839C6.87588 3.75675 7.20621 3.80098 7.53653 3.82847C7.58302 3.83205 7.60015 3.85117 7.60382 3.89898C7.61116 3.99818 7.6234 4.09739 7.6393 4.19539C7.75797 4.94838 8.17271 5.48383 8.8823 5.80175C9.13188 5.91291 9.39614 5.97745 9.65673 6.05394C10.0507 6.16988 10.3015 6.42565 10.3688 6.83083C10.425 7.17266 10.4728 7.51568 10.5229 7.85871C10.5755 8.22325 10.6367 8.58659 10.6771 8.95232C10.737 9.49375 10.3602 10.0196 9.82434 10.1643C9.75093 10.1858 9.67386 10.1965 9.598 10.2121ZM5.99869 8.7336C6.83673 8.73599 7.51818 8.08102 7.52185 7.26708C7.52552 6.45673 6.84775 5.79578 6.00725 5.791C5.16798 5.78622 4.48164 6.44836 4.48042 7.2623C4.48042 8.07504 5.15575 8.73121 5.99869 8.7336Z" fill="#B8B8B8"/>
<path d="M5.99818 0.787842C7.01974 0.798599 8.02784 0.903777 9.01515 1.16433C9.66478 1.33525 10.2912 1.56473 10.8711 1.90058C11.1965 2.08942 11.5011 2.30576 11.7434 2.595C11.9122 2.79579 12.0162 3.01691 11.9979 3.28463C11.9868 3.44001 11.993 3.59539 11.982 3.75076C11.9673 3.96232 11.9318 4.16909 11.851 4.36749C11.6908 4.76191 11.3861 4.96151 10.9616 5.00095C10.6178 5.03322 10.2838 4.96868 9.95107 4.89936C9.70883 4.84916 9.47515 4.77625 9.26228 4.64837C9.00414 4.49418 8.85855 4.26709 8.83041 3.97666C8.80961 3.7675 8.80594 3.55475 8.80839 3.34439C8.81083 3.17348 8.73865 3.05037 8.60163 2.95476C8.40833 2.8197 8.18566 2.75755 7.95811 2.70615C7.54948 2.61532 7.13352 2.57468 6.71511 2.56512C6.23797 2.55436 5.76084 2.55197 5.28492 2.56512C4.78944 2.57946 4.2964 2.62368 3.81804 2.76472C3.66878 2.80894 3.52564 2.86511 3.39963 2.95595C3.26627 3.05157 3.19409 3.17228 3.19654 3.34081C3.19898 3.55355 3.19409 3.7675 3.17329 3.97905C3.14271 4.30056 2.96653 4.53363 2.67658 4.68661C2.44046 4.81091 2.18599 4.88143 1.9254 4.92565C1.72109 4.96032 1.51433 4.98661 1.30757 5.00573C1.11304 5.02366 0.920966 5.00095 0.735006 4.93641C0.391223 4.81809 0.202816 4.5647 0.103718 4.23602C0.0290894 3.98742 0.010738 3.73164 0.0058443 3.47348C0.00339745 3.34559 -0.00149625 3.2177 0.0119614 3.09101C0.0364299 2.87229 0.161219 2.69898 0.305583 2.53763C0.534364 2.28185 0.813305 2.08464 1.10937 1.91014C1.75167 1.53485 2.44658 1.29102 3.1684 1.11533C3.80213 0.963537 4.44443 0.867921 5.09407 0.828479C5.39503 0.810551 5.69722 0.800989 5.99818 0.787842Z" fill="#B8B8B8"/>
</svg>
