<svg width="9" height="11" viewBox="0 0 9 11" fill="none" xmlns="http://www.w3.org/2000/svg">
<path d="M4.50223 11.0005C3.71311 10.9982 2.92849 10.9388 2.15288 10.7805C1.64632 10.6769 1.14875 10.5407 0.683839 10.2996C0.493595 10.2007 0.314608 10.0854 0.170518 9.9201C0.0568219 9.7897 -0.00509179 9.64067 0.000536726 9.46021C0.00729095 9.2553 0.00841665 9.04923 0.000536726 8.84315C-0.0062175 8.65221 0.0511934 8.48456 0.14913 8.32854C0.321362 8.05727 0.546503 7.83839 0.790781 7.64163C1.43131 7.12586 2.14725 6.76144 2.92174 6.51694C3.11423 6.4564 3.26283 6.26313 3.26845 6.04309C3.27408 5.84749 3.26958 5.65073 3.27071 5.45513C3.27071 5.43185 3.2617 5.41671 3.24594 5.40041C2.58178 4.77986 2.22605 3.99165 2.08647 3.08934C2.0178 2.64576 2.02343 2.20217 2.13825 1.7679C2.38027 0.857443 2.96001 0.300923 3.84144 0.0855338C4.44256 -0.0611639 5.03919 -0.0215788 5.60879 0.240381C6.32024 0.566376 6.739 1.14152 6.89209 1.92275C7.02493 2.60501 6.936 3.2698 6.70635 3.91714C6.51723 4.45037 6.24031 4.92888 5.83618 5.31775C5.75288 5.39692 5.71348 5.4726 5.72249 5.59019C5.736 5.75202 5.70673 5.91735 5.73487 6.07802C5.77427 6.29806 5.88909 6.45757 6.1086 6.52742C6.84707 6.76028 7.52924 7.10839 8.14275 7.59506C8.39829 7.79764 8.63356 8.02234 8.82042 8.29595C8.94087 8.47175 9.01067 8.66152 8.99941 8.88274C8.99041 9.07484 8.99266 9.26694 8.99829 9.45905C9.00391 9.64999 8.93412 9.806 8.80917 9.93989C8.65382 10.1075 8.4647 10.2251 8.26433 10.3253C7.84669 10.5337 7.40316 10.6617 6.95063 10.7584C6.25495 10.9086 5.55026 10.9796 4.83994 10.9947C4.78365 10.9959 4.72737 10.9994 4.67108 10.9994C4.6148 11.0005 4.55851 11.0005 4.50223 11.0005Z" fill="#B8B8B8"/>
</svg>
