<svg width="10" height="14" viewBox="0 0 10 14" fill="none" xmlns="http://www.w3.org/2000/svg">
<mask id="path-1-outside-1" maskUnits="userSpaceOnUse" x="0" y="0" width="10" height="14" fill="black">
<rect fill="white" width="10" height="14"/>
<path fill-rule="evenodd" clip-rule="evenodd" d="M4.82223 1C3.16773 1 1.82223 2.3455 1.82223 4.00001C1.82223 5.65451 3.16773 7.00001 4.82223 7.00001C6.47673 7.00001 7.82223 5.65451 7.82223 4.00001C7.82223 2.3455 6.47673 1 4.82223 1ZM4.82223 6.25001C3.58173 6.25001 2.57223 5.24051 2.57223 4.00001C2.57223 2.7595 3.58173 1.75 4.82223 1.75C6.06273 1.75 7.07223 2.7595 7.07223 4.00001C7.07223 5.24051 6.06273 6.25001 4.82223 6.25001ZM4.13566 9.20234C3.02857 9.05738 1.95874 8.56026 1.10969 7.71183C0.963437 7.56558 0.963437 7.32783 1.10969 7.18158C1.25594 7.03533 1.49369 7.03533 1.63994 7.18158C3.39419 8.93658 6.24795 8.93658 8.0037 7.18158C8.14995 7.03533 8.3877 7.03533 8.53395 7.18158C8.6802 7.32783 8.6802 7.56558 8.53395 7.71183C7.68571 8.56007 6.61626 9.05716 5.50944 9.20224L7.75472 12.4098C7.87397 12.58 7.83272 12.8133 7.66322 12.9318C7.59647 12.9783 7.52221 13 7.44722 13C7.32946 13 7.21321 12.9445 7.14046 12.8403L4.82221 9.52902L2.50471 12.8403C2.38621 13.0098 2.15221 13.051 1.98271 12.9318C1.81246 12.8133 1.77196 12.5793 1.89046 12.4098L4.13566 9.20234Z"/>
</mask>
<path fill-rule="evenodd" clip-rule="evenodd" d="M4.82223 1C3.16773 1 1.82223 2.3455 1.82223 4.00001C1.82223 5.65451 3.16773 7.00001 4.82223 7.00001C6.47673 7.00001 7.82223 5.65451 7.82223 4.00001C7.82223 2.3455 6.47673 1 4.82223 1ZM4.82223 6.25001C3.58173 6.25001 2.57223 5.24051 2.57223 4.00001C2.57223 2.7595 3.58173 1.75 4.82223 1.75C6.06273 1.75 7.07223 2.7595 7.07223 4.00001C7.07223 5.24051 6.06273 6.25001 4.82223 6.25001ZM4.13566 9.20234C3.02857 9.05738 1.95874 8.56026 1.10969 7.71183C0.963437 7.56558 0.963437 7.32783 1.10969 7.18158C1.25594 7.03533 1.49369 7.03533 1.63994 7.18158C3.39419 8.93658 6.24795 8.93658 8.0037 7.18158C8.14995 7.03533 8.3877 7.03533 8.53395 7.18158C8.6802 7.32783 8.6802 7.56558 8.53395 7.71183C7.68571 8.56007 6.61626 9.05716 5.50944 9.20224L7.75472 12.4098C7.87397 12.58 7.83272 12.8133 7.66322 12.9318C7.59647 12.9783 7.52221 13 7.44722 13C7.32946 13 7.21321 12.9445 7.14046 12.8403L4.82221 9.52902L2.50471 12.8403C2.38621 13.0098 2.15221 13.051 1.98271 12.9318C1.81246 12.8133 1.77196 12.5793 1.89046 12.4098L4.13566 9.20234Z" fill="white"/>
<path d="M1.10969 7.71183L0.756134 8.06538L0.756264 8.06551L1.10969 7.71183ZM4.13566 9.20234L4.54528 9.48907L5.0181 8.81361L4.20058 8.70657L4.13566 9.20234ZM1.63994 7.18158L1.99357 6.8281L1.99349 6.82802L1.63994 7.18158ZM8.0037 7.18158L8.35718 7.53521L8.35725 7.53513L8.0037 7.18158ZM8.53395 7.71183L8.1804 7.35828L8.53395 7.71183ZM5.50944 9.20224L5.44446 8.70648L4.62708 8.81363L5.09983 9.48897L5.50944 9.20224ZM7.75472 12.4098L7.3451 12.6965L7.34518 12.6966L7.75472 12.4098ZM7.66322 12.9318L7.94902 13.342L7.9497 13.3416L7.66322 12.9318ZM7.14046 12.8403L7.5505 12.5541L7.55006 12.5535L7.14046 12.8403ZM4.82221 9.52902L5.23181 9.24226L4.82214 8.65712L4.41257 9.24232L4.82221 9.52902ZM2.50471 12.8403L2.09507 12.5536L2.09492 12.5538L2.50471 12.8403ZM1.98271 12.9318L2.27041 12.5228L2.26834 12.5214L1.98271 12.9318ZM1.89046 12.4098L1.48084 12.123L1.48067 12.1233L1.89046 12.4098ZM2.32223 4.00001C2.32223 2.62164 3.44387 1.5 4.82223 1.5V0.5C2.89159 0.5 1.32223 2.06936 1.32223 4.00001H2.32223ZM4.82223 6.50001C3.44387 6.50001 2.32223 5.37837 2.32223 4.00001H1.32223C1.32223 5.93065 2.89159 7.50001 4.82223 7.50001V6.50001ZM7.32223 4.00001C7.32223 5.37837 6.20059 6.50001 4.82223 6.50001V7.50001C6.75288 7.50001 8.32223 5.93065 8.32223 4.00001H7.32223ZM4.82223 1.5C6.20059 1.5 7.32223 2.62164 7.32223 4.00001H8.32223C8.32223 2.06936 6.75288 0.5 4.82223 0.5V1.5ZM2.07223 4.00001C2.07223 5.51665 3.30559 6.75001 4.82223 6.75001V5.75001C3.85787 5.75001 3.07223 4.96437 3.07223 4.00001H2.07223ZM4.82223 1.25C3.30559 1.25 2.07223 2.48336 2.07223 4.00001H3.07223C3.07223 3.03565 3.85787 2.25 4.82223 2.25V1.25ZM7.57223 4.00001C7.57223 2.48336 6.33888 1.25 4.82223 1.25V2.25C5.78659 2.25 6.57223 3.03565 6.57223 4.00001H7.57223ZM4.82223 6.75001C6.33888 6.75001 7.57223 5.51665 7.57223 4.00001H6.57223C6.57223 4.96437 5.78659 5.75001 4.82223 5.75001V6.75001ZM0.756264 8.06551C1.68608 8.99465 2.85856 9.53938 4.07075 9.69811L4.20058 8.70657C3.19859 8.57537 2.23139 8.12586 1.46311 7.35815L0.756264 8.06551ZM0.756134 6.82802C0.414622 7.16954 0.414622 7.72387 0.756134 8.06538L1.46324 7.35828C1.51225 7.40729 1.51225 7.48612 1.46324 7.53513L0.756134 6.82802ZM1.99349 6.82802C1.65198 6.48651 1.09765 6.48651 0.756134 6.82802L1.46324 7.53513C1.41423 7.58414 1.3354 7.58414 1.28639 7.53513L1.99349 6.82802ZM7.65022 6.82795C6.08963 8.38787 3.55246 8.38766 1.99357 6.8281L1.28631 7.53506C3.23593 9.48551 6.40626 9.48529 8.35718 7.53521L7.65022 6.82795ZM8.8875 6.82802C8.54599 6.48651 7.99166 6.48651 7.65015 6.82802L8.35725 7.53513C8.30824 7.58414 8.22941 7.58414 8.1804 7.53513L8.8875 6.82802ZM8.8875 8.06538C9.22902 7.72387 9.22902 7.16954 8.8875 6.82802L8.1804 7.53513C8.13139 7.48612 8.13139 7.40729 8.1804 7.35828L8.8875 8.06538ZM5.57443 9.698C6.78631 9.53915 7.95845 8.99444 8.8875 8.06538L8.1804 7.35828C7.41297 8.1257 6.44621 8.57517 5.44446 8.70648L5.57443 9.698ZM5.09983 9.48897L7.3451 12.6965L8.16433 12.123L5.91906 8.91551L5.09983 9.48897ZM7.34518 12.6966C7.30636 12.6412 7.31913 12.5623 7.37673 12.522L7.9497 13.3416C8.3463 13.0643 8.44157 12.5188 8.16425 12.1229L7.34518 12.6966ZM7.37741 12.5215C7.3858 12.5157 7.39693 12.5099 7.41023 12.5058C7.4234 12.5017 7.4361 12.5 7.44722 12.5V13.5C7.62191 13.5 7.79638 13.4484 7.94902 13.342L7.37741 12.5215ZM7.44722 12.5C7.48525 12.5 7.52545 12.5182 7.5505 12.5541L6.73043 13.1264C6.90098 13.3708 7.17368 13.5 7.44722 13.5V12.5ZM7.55006 12.5535L5.23181 9.24226L4.41262 9.81578L6.73087 13.127L7.55006 12.5535ZM4.41257 9.24232L2.09507 12.5536L2.91435 13.127L5.23185 9.81572L4.41257 9.24232ZM2.09492 12.5538C2.13495 12.4965 2.21356 12.4828 2.27041 12.5228L1.695 13.3407C2.09086 13.6192 2.63746 13.523 2.91449 13.1268L2.09492 12.5538ZM2.26834 12.5214C2.32699 12.5622 2.33886 12.641 2.30024 12.6963L1.48067 12.1233C1.20506 12.5175 1.29792 13.0643 1.69707 13.3422L2.26834 12.5214ZM2.30007 12.6965L4.54528 9.48907L3.72605 8.91561L1.48084 12.123L2.30007 12.6965Z" fill="white" mask="url(#path-1-outside-1)"/>
</svg>
