<svg width="16" height="10" viewBox="0 0 16 10" fill="none" xmlns="http://www.w3.org/2000/svg">
<path d="M15.5045 8.157C15.5045 8.09473 15.4423 8.09473 15.4423 8.03246C15.1932 7.53433 14.6328 6.91166 13.8856 6.22672C13.512 5.91538 13.3252 5.66631 13.2006 5.54178C13.0138 5.29271 13.0139 5.10591 13.0761 4.85684C13.1384 4.67004 13.3874 4.3587 13.8233 3.79829C14.0724 3.48696 14.1969 3.30016 14.3837 3.11336C15.3177 1.86802 15.7536 1.05854 15.6291 0.684933L15.5668 0.622672C15.5045 0.560405 15.4423 0.498139 15.3177 0.498139C15.1932 0.435872 15.0064 0.435872 14.8196 0.498139H12.4534C12.3912 0.498139 12.3912 0.498139 12.2666 0.498139C12.2044 0.498139 12.1421 0.498139 12.1421 0.498139H12.0798H12.0176L11.9553 0.560401C11.893 0.622668 11.893 0.622666 11.893 0.684933C11.644 1.36987 11.3326 1.93028 11.0213 2.55295C10.8345 2.86429 10.6477 3.17563 10.4609 3.4247C10.2741 3.67376 10.1495 3.86056 10.025 3.9851C9.90048 4.10963 9.77594 4.1719 9.71368 4.29643C9.65141 4.3587 9.52688 4.42097 9.52688 4.3587C9.46462 4.3587 9.40234 4.3587 9.40234 4.29643C9.34007 4.23417 9.27781 4.1719 9.21555 4.10963C9.15328 4.04736 9.15327 3.92283 9.09101 3.79829C9.09101 3.67376 9.09101 3.54922 9.09101 3.48696C9.09101 3.42469 9.09101 3.23789 9.09101 3.11336C9.09101 2.92656 9.09101 2.80202 9.09101 2.73975C9.09101 2.55295 9.09101 2.30389 9.09101 2.05482C9.09101 1.80575 9.09101 1.61894 9.09101 1.49441C9.09101 1.36987 9.09101 1.18307 9.09101 1.05854C9.09101 0.871739 9.09101 0.747201 9.09101 0.684933C9.09101 0.622666 9.02875 0.498136 9.02875 0.435868C8.96649 0.373601 8.90421 0.311332 8.84194 0.249065C8.77967 0.186798 8.65514 0.1868 8.59287 0.124532C8.28154 0.0622653 7.90794 0 7.47207 0C6.4758 0 5.79085 0.0622691 5.54179 0.186803C5.41725 0.249071 5.29272 0.311334 5.23045 0.435868C5.10592 0.560403 5.10591 0.622672 5.16818 0.622672C5.47952 0.684939 5.72859 0.809468 5.85312 0.996269L5.91539 1.12081C5.97766 1.18308 5.97765 1.30761 6.03992 1.49441C6.10218 1.68121 6.10219 1.86801 6.10219 2.11708C6.10219 2.49068 6.10219 2.86429 6.10219 3.11336C6.10219 3.4247 6.03992 3.61149 6.03992 3.79829C6.03992 3.98509 5.97766 4.10963 5.91539 4.1719C5.85313 4.29643 5.85312 4.3587 5.79085 4.3587C5.79085 4.3587 5.79085 4.42097 5.72858 4.42097C5.66631 4.42097 5.60405 4.48324 5.47952 4.48324C5.41725 4.48324 5.29272 4.42097 5.23045 4.3587C5.10592 4.29644 4.98138 4.1719 4.91911 4.04737C4.79458 3.92283 4.67004 3.73603 4.54551 3.48696C4.42097 3.23789 4.23416 2.98882 4.10963 2.61522L3.98511 2.36616C3.92284 2.24162 3.7983 1.99255 3.67377 1.68121C3.54924 1.36988 3.4247 1.12081 3.30016 0.809475C3.2379 0.684941 3.17564 0.622668 3.11337 0.560401H3.0511C3.0511 0.560401 2.98882 0.498139 2.92656 0.498139C2.86429 0.498139 2.80203 0.435868 2.73976 0.435868H0.498139C0.249071 0.435868 0.124538 0.498134 0.062271 0.560401L0 0.622672C0 0.622672 0 0.684937 0 0.747204C0 0.809472 3.79956e-06 0.871735 0.062271 0.996269C0.373607 1.74348 0.747208 2.49069 1.12081 3.23789C1.49441 3.92283 1.86802 4.54551 2.11709 4.98138C2.42843 5.41725 2.67749 5.85312 2.98883 6.22672C3.30016 6.60032 3.48696 6.84939 3.54923 6.97392C3.67376 7.09846 3.73603 7.16072 3.79829 7.22299L3.98511 7.40979C4.10964 7.53433 4.29644 7.72113 4.54551 7.90793C4.79458 8.09473 5.10591 8.28153 5.41724 8.46833C5.72858 8.65513 6.10219 8.77968 6.47579 8.90421C6.91166 9.02875 7.28526 9.09101 7.65887 9.02874H8.59287C8.77968 9.02874 8.90422 8.96647 9.02875 8.84194L9.09101 8.77967C9.09101 8.7174 9.15328 8.7174 9.15328 8.65514C9.15328 8.59287 9.15328 8.53061 9.15328 8.40607C9.15328 8.157 9.15328 7.9702 9.21555 7.7834C9.27781 7.5966 9.27782 7.47207 9.34009 7.34753C9.40236 7.223 9.46462 7.16072 9.52688 7.09846C9.58915 7.03619 9.65143 6.97392 9.65143 6.97392H9.71368C9.83821 6.91166 10.025 6.97392 10.1496 7.09846C10.3364 7.22299 10.5232 7.40979 10.6477 7.5966C10.7722 7.7834 10.959 7.9702 11.2081 8.21927C11.4572 8.46834 11.644 8.65514 11.7685 8.71741L11.9553 8.84194C12.0798 8.90421 12.2044 8.96648 12.3912 9.02874C12.578 9.09101 12.7025 9.09101 12.827 9.09101L14.9441 9.02874C15.1309 9.02874 15.3177 8.96648 15.4423 8.90421C15.5668 8.84194 15.6291 8.77967 15.6291 8.65514C15.6291 8.59287 15.6291 8.46834 15.6291 8.40607C15.5045 8.28154 15.5045 8.21926 15.5045 8.157Z" fill="#E12656"/>
</svg>
