<svg width="29" height="29" viewBox="0 0 29 29" fill="none" xmlns="http://www.w3.org/2000/svg">
<g clip-path="url(#clip0)">
<path d="M14.4413 28.9996C6.44958 28.9656 -0.0247262 22.4418 -0.000911071 14.4656C0.0263062 6.43834 6.53804 -0.0208482 14.4991 -0.000440054C22.5826 0.0199681 29.0433 6.53018 28.9991 14.5812C28.9583 22.5676 22.4295 29.0336 14.4413 28.9996ZM7.31033 12.7105C7.31373 13.4213 7.39538 13.9996 7.54167 14.5642C7.79003 15.5166 8.17448 16.4179 8.64397 17.2785C9.70885 19.2377 11.0255 21.0132 12.6687 22.5268C13.077 22.9043 13.5465 23.2207 14.0092 23.5336C14.4208 23.8125 14.8563 23.7955 15.2646 23.4996C15.598 23.2581 15.9416 23.0234 16.2478 22.7479C17.2276 21.8635 18.0782 20.8601 18.847 19.7921C19.8847 18.3533 20.7795 16.8397 21.3476 15.1458C21.7287 14.0064 21.8512 12.8567 21.6538 11.6662C21.4327 10.3499 20.9428 9.15603 20.1161 8.10501C18.9899 6.66963 17.5508 5.73426 15.7341 5.41453C14.9039 5.26827 14.0738 5.29208 13.2505 5.44854C12.4306 5.60501 11.6651 5.90773 10.9506 6.3397C9.88576 6.98936 9.03522 7.84991 8.39902 8.92474C7.68797 10.1288 7.34095 11.4383 7.31033 12.7105Z" fill="#E12656"/>
<path d="M11.057 9.87744C11.1795 10.84 11.6967 11.4251 12.6425 11.5339C13.3875 11.6189 13.9999 11.3026 14.3265 10.6257C14.8028 9.64275 14.4796 8.85363 13.544 8.24139C14.1632 8.08833 14.7416 8.06792 15.3166 8.16316C16.4835 8.35703 17.4055 8.95567 18.0859 9.91145C19.4264 11.7924 19.2665 14.4421 17.1911 16.0135C15.2825 17.4591 12.4723 17.0305 10.9686 15.0849C9.58051 13.2924 10.1385 10.9183 11.057 9.87744Z" fill="#E12656"/>
</g>
<defs>
<clipPath id="clip0">
<rect width="29" height="29" fill="white"/>
</clipPath>
</defs>
</svg>
