<svg width="32" height="23" viewBox="0 0 32 23" fill="none" xmlns="http://www.w3.org/2000/svg">
<path d="M24.276 19.3174H8.75879V22.1355H24.276V19.3174Z" stroke="white" stroke-miterlimit="10"/>
<path d="M22.207 19.3173H10.8276V14.1509C10.8276 11.2858 13.3621 8.98438 16.5173 8.98438C19.6725 8.98438 22.207 11.2858 22.207 14.1509V19.3173Z" stroke="white" stroke-miterlimit="10"/>
<path d="M16.5176 8.98438C16.0003 8.98438 15.4831 9.07831 14.9658 9.17225C17.3452 9.78283 19.1038 11.7555 19.1038 14.1509V19.3173H22.2073V14.1509C22.2073 11.2858 19.6728 8.98438 16.5176 8.98438Z" stroke="white" stroke-miterlimit="10" stroke-linejoin="round"/>
<path d="M1 14.6201H7.2069" stroke="white" stroke-miterlimit="10" stroke-linecap="round" stroke-linejoin="round"/>
<path d="M24.793 14.6201H30.9999" stroke="white" stroke-miterlimit="10" stroke-linecap="round" stroke-linejoin="round"/>
<path d="M22.207 8.98447L26.6036 4.99219" stroke="white" stroke-miterlimit="10" stroke-linecap="round" stroke-linejoin="round"/>
<path d="M16 6.63616V1" stroke="white" stroke-miterlimit="10" stroke-linecap="round" stroke-linejoin="round"/>
<path d="M9.79297 8.98447L5.39648 4.99219" stroke="white" stroke-miterlimit="10" stroke-linecap="round" stroke-linejoin="round"/>
</svg>
