<svg width="14" height="15" viewBox="0 0 14 15" fill="none" xmlns="http://www.w3.org/2000/svg">
<path d="M8.34814 0C10.4893 0.0950284 12.3519 1.12236 13.4054 3.28747C15.0867 6.73931 13.0244 10.7177 9.23874 11.4728C7.92255 11.7347 6.65364 11.5575 5.44779 10.9796C5.35584 10.936 5.30855 10.9462 5.23761 11.0156C4.38905 11.8503 3.5326 12.6773 2.68667 13.5146C2.25582 13.9461 1.7409 14.0976 1.15505 13.9409C0.0647871 13.6481 -0.400216 12.3357 0.406315 11.4856C1.03683 10.8204 1.712 10.1963 2.36616 9.55421C2.56582 9.35645 2.76548 9.15869 2.9704 8.96606C3.02819 8.91213 3.03608 8.87103 2.99141 8.80426C2.5737 8.13906 2.30311 7.42249 2.20065 6.64685C1.94582 4.7206 2.487 3.04605 3.89778 1.66685C5.01956 0.572739 6.49338 0.00256834 8.34814 0ZM11.3641 5.78132C11.3641 3.97322 9.92442 2.57604 8.06704 2.57604C6.06779 2.57604 4.74634 4.17098 4.75159 5.77876C4.75685 7.55091 6.24381 9.00715 8.06441 9.01229C9.89815 9.01486 11.3641 7.57916 11.3641 5.78132Z" fill="white"/>
</svg>
