<svg width="54" height="47" viewBox="0 0 54 47" fill="none" xmlns="http://www.w3.org/2000/svg">
<path d="M44.6502 47H9.62895C9.18836 47 8.823 46.6366 8.823 46.1985V43.1742C8.823 42.736 9.18836 42.3727 9.62895 42.3727C10.0695 42.3727 10.4349 42.736 10.4349 43.1742V45.4077H43.8443V29.9654C43.8443 29.5273 44.2096 29.1639 44.6502 29.1639C45.0908 29.1639 45.4562 29.5273 45.4562 29.9654V46.1985C45.4562 46.6473 45.0908 47 44.6502 47Z" fill="#A61D1D"/>
<path d="M9.62993 23.4466C9.18934 23.4466 8.82397 23.0832 8.82397 22.6451V0.801501C8.82397 0.363347 9.18934 0 9.62993 0H44.6512C45.0918 0 45.4572 0.363347 45.4572 0.801501V9.48977C45.4572 9.92792 45.0918 10.2913 44.6512 10.2913C44.2106 10.2913 43.8453 9.92792 43.8453 9.48977V1.603H10.4359V22.6451C10.4359 23.0832 10.0705 23.4466 9.62993 23.4466Z" fill="#A61D1D"/>
<path d="M30.2398 12.5675C29.9711 12.5675 29.7025 12.4286 29.552 12.1828C29.3156 11.8088 29.4338 11.3172 29.8207 11.0821L44.2311 2.28694C44.6072 2.05184 45.1015 2.16939 45.3379 2.55411C45.5743 2.92814 45.4561 3.41973 45.0693 3.65484L30.6589 12.45C30.5299 12.5355 30.3902 12.5675 30.2398 12.5675Z" fill="#A61D1D"/>
<path d="M24.1253 12.8133C23.9748 12.8133 23.8351 12.7706 23.6954 12.6958L9.19905 3.64418C8.82294 3.40907 8.70474 2.91749 8.94115 2.54345C9.17756 2.16942 9.67188 2.05186 10.048 2.28697L24.5444 11.3279C24.9205 11.563 25.0387 12.0546 24.8023 12.4286C24.6518 12.6851 24.3939 12.8133 24.1253 12.8133Z" fill="#A61D1D"/>
<path d="M27.134 17.1842C24.9633 17.1842 23.2009 15.4316 23.2009 13.2729C23.2009 11.1142 24.9633 9.36157 27.134 9.36157C29.3047 9.36157 31.067 11.1142 31.067 13.2729C31.067 15.4316 29.3047 17.1842 27.134 17.1842ZM27.134 10.9646C25.8552 10.9646 24.8128 12.0012 24.8128 13.2729C24.8128 14.5446 25.8552 15.5812 27.134 15.5812C28.4127 15.5812 29.4551 14.5446 29.4551 13.2729C29.4551 12.0012 28.4235 10.9646 27.134 10.9646Z" fill="#A61D1D"/>
<path d="M27.1343 14.0529C27.5675 14.0529 27.9188 13.7037 27.9188 13.2728C27.9188 12.842 27.5675 12.4927 27.1343 12.4927C26.7011 12.4927 26.3499 12.842 26.3499 13.2728C26.3499 13.7037 26.7011 14.0529 27.1343 14.0529Z" fill="#A61D1D"/>
<path d="M27.1343 38.1835C27.5675 38.1835 27.9188 37.8342 27.9188 37.4034C27.9188 36.9725 27.5675 36.6232 27.1343 36.6232C26.7011 36.6232 26.3499 36.9725 26.3499 37.4034C26.3499 37.8342 26.7011 38.1835 27.1343 38.1835Z" fill="#A61D1D"/>
<path d="M27.134 41.3146C24.9633 41.3146 23.2009 39.562 23.2009 37.4033C23.2009 36.9652 23.5663 36.6018 24.0069 36.6018C24.4475 36.6018 24.8128 36.9652 24.8128 37.4033C24.8128 38.675 25.8552 39.7116 27.134 39.7116C28.4127 39.7116 29.4551 38.675 29.4551 37.4033C29.4551 36.8583 29.2724 36.356 28.9286 35.9392C28.6492 35.5973 28.6921 35.095 29.036 34.8065C29.3799 34.5286 29.885 34.5714 30.1751 34.9133C30.7554 35.608 31.0778 36.495 31.0778 37.4033C31.067 39.562 29.3047 41.3146 27.134 41.3146Z" fill="#A61D1D"/>
<path d="M25.3717 18.178C25.0063 18.178 24.6732 17.9216 24.5872 17.5582L24.1896 15.8377C24.0929 15.4102 24.3616 14.972 24.7914 14.8759C25.2212 14.7797 25.6618 15.0468 25.7585 15.4743L26.1561 17.1949C26.2529 17.6223 25.9842 18.0605 25.5544 18.1567C25.4899 18.178 25.4362 18.178 25.3717 18.178Z" fill="#A61D1D"/>
<path d="M6.58781 42.191C6.48035 42.191 6.36214 42.1696 6.26543 42.1268C6.072 42.0413 5.91081 41.881 5.83559 41.6887L1.05361 29.4952C0.892416 29.0784 1.09659 28.6189 1.51569 28.4586L47.1325 10.7614C47.3367 10.6866 47.5516 10.6866 47.7451 10.7721C47.9385 10.8576 48.0997 11.0179 48.1749 11.2103L52.9461 23.4038C53.1073 23.8206 52.9032 24.2801 52.4841 24.4404L6.87795 42.1268C6.78124 42.1696 6.68452 42.191 6.58781 42.191ZM2.84819 29.6662L7.03914 40.3528L51.1516 23.2435L46.9606 12.5568L2.84819 29.6662Z" fill="#A61D1D"/>
<path d="M7.64094 34.1866C6.98543 32.5088 7.51198 31.0661 8.97344 30.4997C10.1448 30.0508 11.3053 30.4035 11.8964 31.408L11.2194 31.6752C10.7788 31.0447 9.98357 30.8203 9.2206 31.1195C8.16749 31.5256 7.82362 32.637 8.32868 33.9301C8.84449 35.2339 9.84387 35.811 10.897 35.4049C11.6814 35.0949 12.1005 34.5072 12.0361 33.7805L12.7131 33.5133C12.885 34.6568 12.3155 35.5545 11.1334 36.014C9.66119 36.5804 8.30719 35.8751 7.64094 34.1866Z" fill="#A61D1D"/>
<path d="M13.0569 32.8615C12.5733 31.6218 12.9817 30.5532 14.11 30.115C15.2383 29.6768 16.27 30.1898 16.7535 31.4295C17.2371 32.6691 16.8288 33.7378 15.7004 34.1759C14.5828 34.6141 13.5512 34.1011 13.0569 32.8615ZM16.098 31.6859C15.7434 30.7669 15.0879 30.4035 14.3357 30.6921C13.5834 30.9806 13.3578 31.6966 13.7124 32.605C14.067 33.5134 14.7333 33.8874 15.4747 33.5989C16.227 33.321 16.4526 32.605 16.098 31.6859Z" fill="#A61D1D"/>
<path d="M16.657 29.1745L17.2695 28.9394L17.5274 29.5913L17.5382 29.5806C17.6134 29.0356 17.9573 28.6295 18.5805 28.3944C19.4617 28.0524 20.2247 28.4051 20.5793 29.3028L21.5787 31.8569L20.9339 32.1027L19.9775 29.6554C19.7196 29.0035 19.236 28.7791 18.6128 29.0249C17.9573 29.2814 17.6993 29.9012 17.968 30.5852L18.8707 32.9042L18.2259 33.15L16.657 29.1745Z" fill="#A61D1D"/>
<path d="M21.2884 27.9884L20.7296 28.2021L20.5254 27.6678L21.0842 27.454L20.9445 27.08C20.6543 26.3426 20.8478 25.8938 21.5892 25.6052C21.7182 25.5518 21.8364 25.5197 21.9654 25.4984L22.1695 26.0327C22.0728 26.0434 21.9546 26.0861 21.8579 26.1182C21.5248 26.2464 21.4388 26.4602 21.5892 26.8342L21.7289 27.2082L22.5134 26.909L22.7176 27.4433L21.9331 27.7426L23.2871 31.1944L22.6424 31.4402L21.2884 27.9884Z" fill="#A61D1D"/>
<path d="M22.75 25.6052C22.664 25.3808 22.7715 25.1243 22.9972 25.0388C23.2228 24.9533 23.4807 25.0602 23.5667 25.2846C23.6527 25.509 23.5452 25.7655 23.3195 25.851C23.0939 25.9365 22.836 25.8296 22.75 25.6052ZM23.2443 26.6204L23.8891 26.3746L25.4473 30.3608L24.8025 30.6066L23.2443 26.6204Z" fill="#A61D1D"/>
<path d="M25.3934 28.0845C24.9206 26.8662 25.3074 25.7762 26.2961 25.3914C26.8656 25.167 27.4244 25.2418 27.8435 25.5838L27.8542 25.5731L26.9838 23.3396L27.6286 23.0938L29.81 28.6616L29.1975 28.8967L28.9288 28.2234H28.9181C28.8429 28.7791 28.4775 29.2066 27.8972 29.431C26.8978 29.8371 25.8662 29.3028 25.3934 28.0845ZM26.0489 27.828C26.3928 28.715 27.0913 29.0997 27.7898 28.8325C28.4882 28.5654 28.7247 27.7959 28.3808 26.9196C28.0369 26.054 27.3384 25.6479 26.6399 25.9151C25.9522 26.1929 25.705 26.9517 26.0489 27.828Z" fill="#A61D1D"/>
<path d="M33.5818 25.8937C33.743 26.6204 33.2379 27.3792 32.3782 27.7105C31.2499 28.1486 30.2398 27.6464 29.7562 26.4067C29.2726 25.1671 29.6702 24.0877 30.7556 23.6602C31.8302 23.2435 32.7866 23.735 33.2594 24.9426L33.3561 25.1991L30.4762 26.3105L30.4869 26.3426C30.7878 27.1013 31.4433 27.4113 32.1633 27.1334C32.6684 26.941 32.9585 26.5456 32.9263 26.1289L33.5818 25.8937ZM30.2827 25.7976L32.4857 24.9426C32.2063 24.2694 31.5938 23.9915 30.9705 24.2373C30.3472 24.4724 30.0678 25.1029 30.2827 25.7976Z" fill="#A61D1D"/>
<path d="M33.1948 22.7625L33.8073 22.5274L34.0653 23.1793L34.076 23.1686C34.1512 22.6236 34.4951 22.2175 35.1184 21.9824C35.9995 21.6404 36.7625 21.9931 37.1171 22.8908L38.1165 25.4449L37.4717 25.6907L36.5153 23.2434C36.2574 22.5916 35.7739 22.3671 35.1506 22.6129C34.4951 22.8694 34.2372 23.4892 34.5058 24.1732L35.4085 26.4922L34.7637 26.738L33.1948 22.7625Z" fill="#A61D1D"/>
<path d="M37.9232 19.8985L38.2778 20.7962L39.0622 20.497L39.2664 21.0313L38.482 21.3305L39.4169 23.7243C39.5566 24.0877 39.7822 24.1945 40.1261 24.0663C40.2013 24.0342 40.3518 23.9594 40.3947 23.9381L40.6097 24.4831C40.5344 24.5365 40.3625 24.622 40.2013 24.6754C39.4813 24.9533 39.073 24.7716 38.7721 24.0022L37.8264 21.587L37.2677 21.8007L37.0635 21.2664L37.6223 21.0527L37.2677 20.155L37.9232 19.8985Z" fill="#A61D1D"/>
<path d="M39.3096 19.1825C39.2236 18.9581 39.3311 18.7016 39.5567 18.6161C39.7824 18.5306 40.0403 18.6375 40.1263 18.8619C40.2122 19.0863 40.1048 19.3428 39.8791 19.4283C39.6534 19.5138 39.3955 19.3962 39.3096 19.1825ZM39.8039 20.1977L40.4486 19.9519L42.0068 23.9381L41.3621 24.1839L39.8039 20.1977Z" fill="#A61D1D"/>
<path d="M42.2969 22.506C42.0282 21.8221 42.3936 21.2129 43.35 20.7748L44.4461 20.2725L44.3171 19.9412C44.1237 19.4497 43.6939 19.3 43.1028 19.5245C42.6407 19.7061 42.3828 20.0802 42.4581 20.4863L41.8348 20.7321C41.5876 20.0481 42.0497 19.2787 42.8879 18.9581C43.8336 18.5947 44.6395 18.8619 44.9511 19.642L46.0257 22.3778L45.4132 22.6129L45.1446 21.9183L45.1338 21.929C45.0801 22.4633 44.6932 22.9442 44.1344 23.1579C43.2963 23.4785 42.5763 23.222 42.2969 22.506ZM44.7792 21.1168L44.6503 20.7962L43.6294 21.2664C43.0383 21.5335 42.8127 21.8755 42.9631 22.2602C43.1028 22.6343 43.5219 22.7411 44.027 22.5488C44.6825 22.2923 45.0049 21.6832 44.7792 21.1168Z" fill="#A61D1D"/>
<path d="M44.7256 16.4681L45.3703 16.2223L47.5518 21.79L46.907 22.0358L44.7256 16.4681Z" fill="#A61D1D"/>
</svg>
