<svg width="40" height="55" viewBox="0 0 40 55" fill="none" xmlns="http://www.w3.org/2000/svg">
<path d="M39.0977 45.7607H37.2503L39.8711 30.4636C40.0859 29.1125 39.8711 27.6743 39.1407 26.4976L27.7981 7.06022V5.66561C27.7981 2.52773 25.3061 0 22.2127 0H5.58539C2.49194 0 0 2.52773 0 5.66561V33.8193C0 36.9572 2.49194 39.4849 5.58539 39.4849H21.6112C22.6423 42.2742 23.5016 44.6276 23.9313 45.7171H18.6896C18.217 45.7171 17.8303 46.1094 17.8303 46.5888V54.0412C17.8303 54.5206 18.217 54.9128 18.6896 54.9128C19.1622 54.9128 19.5489 54.5206 19.5489 54.0412V47.4604H38.2384V54.0412C38.2384 54.5206 38.6251 54.9128 39.0977 54.9128C39.5704 54.9128 39.957 54.5206 39.957 54.0412V46.6323C40 46.1529 39.5704 45.7607 39.0977 45.7607ZM5.58539 37.7417C3.48013 37.7417 1.76155 35.9984 1.76155 33.8629V5.66561C1.76155 3.53011 3.48013 1.78685 5.58539 1.78685H22.1697C24.275 1.78685 25.9936 3.53011 25.9936 5.66561V7.27813V26.3233C23.8453 23.0111 21.0097 21.1807 18.8185 20.8756C17.4866 20.7013 16.4554 21.0499 15.8539 21.878C15.4243 22.4881 15.0806 23.6212 15.9398 25.4081C17.1858 28.023 19.2052 33.1656 20.9237 37.7417H5.58539ZM17.5725 24.6672C17.1858 23.8827 17.0999 23.229 17.3147 22.9239C17.4866 22.6624 18.0021 22.5753 18.6037 22.6624C20.5371 22.9239 24.1461 25.1902 26.0795 30.3764C26.2084 30.7686 26.638 31.0301 27.0677 30.9429C27.4973 30.8558 27.7981 30.5071 27.7981 30.0713V10.5468L37.6799 27.4128C38.1525 28.2409 38.3244 29.2433 38.1955 30.1585L35.4887 45.7607H25.8217C25.435 44.6712 20.0644 29.9406 17.5725 24.6672Z" fill="#A61D1D"/>
<path d="M23.1149 52.1236C24.0641 52.1236 24.8335 51.3431 24.8335 50.3803C24.8335 49.4176 24.0641 48.6371 23.1149 48.6371C22.1658 48.6371 21.3964 49.4176 21.3964 50.3803C21.3964 51.3431 22.1658 52.1236 23.1149 52.1236Z" fill="#A61D1D"/>
<path d="M10.87 5.14264H5.62833C5.15572 5.14264 4.76904 5.53487 4.76904 6.01427V11.3312C4.76904 11.8106 5.15572 12.2029 5.62833 12.2029H10.87C11.3426 12.2029 11.7293 11.8106 11.7293 11.3312V6.05785C11.7293 5.53487 11.3426 5.14264 10.87 5.14264ZM9.96775 10.4596H6.48763V6.92948H9.96775V10.4596Z" fill="#A61D1D"/>
<path d="M10.87 13.9461C10.3974 13.9461 10.0107 14.3383 10.0107 14.8177V32.1196C10.0107 32.599 10.3974 32.9913 10.87 32.9913C11.3426 32.9913 11.7293 32.599 11.7293 32.1196V14.8177C11.7293 14.3383 11.3426 13.9461 10.87 13.9461Z" fill="#A61D1D"/>
<path d="M5.62833 13.9461C5.15572 13.9461 4.76904 14.3383 4.76904 14.8177V20.9627C4.76904 21.4421 5.15572 21.8344 5.62833 21.8344C6.10094 21.8344 6.48762 21.4421 6.48762 20.9627V14.8177C6.53059 14.3383 6.10094 13.9461 5.62833 13.9461Z" fill="#A61D1D"/>
<path d="M5.62833 24.5364C5.15572 24.5364 4.76904 24.9287 4.76904 25.4081V28.328C4.76904 28.8074 5.15572 29.1997 5.62833 29.1997C6.10094 29.1997 6.48762 28.8074 6.48762 28.328V25.4081C6.53059 24.9287 6.10094 24.5364 5.62833 24.5364Z" fill="#A61D1D"/>
</svg>
