<svg width="30" height="49" viewBox="0 0 30 49" fill="none" xmlns="http://www.w3.org/2000/svg">
<path d="M25.9721 10.481C24.6832 11.5345 24.8443 12.2638 21.3804 12.831C17.9165 13.3983 16.8693 12.1828 15.4193 11.2914C13.9693 10.4 12.2776 9.34655 8.81375 9.83276C5.34986 10.4 4.78597 11.2914 3.57764 13.0741" stroke="#A61D1D" stroke-width="2" stroke-miterlimit="10"/>
<path d="M25.5694 5.05174H3.81944C2.28889 5.05174 1 3.75519 1 2.21554V1.81036H28.3889V2.21554C28.3889 3.75519 27.1 5.05174 25.5694 5.05174Z" stroke="#A61D1D" stroke-width="1.9928" stroke-miterlimit="10"/>
<path d="M28.3889 47.1897H1V46.7845C1 45.2449 2.28889 43.9483 3.81944 43.9483H25.5694C27.1 43.9483 28.3889 45.2449 28.3889 46.7845V47.1897Z" stroke="#A61D1D" stroke-width="1.9928" stroke-miterlimit="10"/>
<path d="M25.9721 12.5069V5.05176H3.4165V12.5069C3.4165 16.9638 6.39706 20.6914 10.6665 22.2311C11.6332 22.5552 13.0832 23.5276 13.0832 24.5C13.0832 25.5535 11.6332 26.4449 10.6665 26.85C6.39706 28.3897 3.4165 32.3604 3.4165 36.9793V43.9483H25.9721V36.9793C25.9721 32.3604 22.9109 28.3897 18.7221 26.85C17.7554 26.5259 16.3054 25.5535 16.3054 24.5C16.3054 23.4466 17.7554 22.5552 18.7221 22.2311C22.9915 20.6914 25.9721 16.8828 25.9721 12.5069Z" stroke="#A61D1D" stroke-width="1.9928" stroke-miterlimit="10"/>
<path d="M17.9165 37.5466L25.9721 43.9483H3.4165L11.4721 37.5466C13.3248 36.088 15.9832 36.088 17.9165 37.5466Z" stroke="#A61D1D" stroke-width="1.9928" stroke-miterlimit="10"/>
<path d="M13.8887 26.931H15.4998" stroke="#A61D1D" stroke-width="1.9928" stroke-miterlimit="10"/>
<path d="M13.8887 30.1724H15.4998" stroke="#A61D1D" stroke-width="1.9928" stroke-miterlimit="10"/>
<path d="M13.8887 33.4138H15.4998" stroke="#A61D1D" stroke-width="1.9928" stroke-miterlimit="10"/>
</svg>
