<svg width="32" height="48" viewBox="0 0 32 48" fill="none" xmlns="http://www.w3.org/2000/svg">
<path d="M3.44163 48C3.40152 48 3.36141 48 3.31127 47.9899C2.90011 47.9192 2.62935 47.5254 2.69955 47.1214L4.41437 36.8508L5.35702 25.0452L6.21945 4.27184C6.22948 2.70651 7.49303 1.44415 9.0474 1.44415C10.6018 1.44415 11.8754 2.71661 11.8754 4.29204V19.713C11.8754 20.1271 11.5344 20.4705 11.1232 20.4705C10.7121 20.4705 10.3711 20.1271 10.3711 19.713V4.28194C10.3711 3.54472 9.77946 2.94889 9.0474 2.94889C8.31534 2.94889 7.72368 3.54472 7.72368 4.28194C7.72368 4.29204 7.72368 4.30214 7.72368 4.31224L6.86125 25.1159C6.86125 25.126 6.86125 25.1361 6.86125 25.1462L5.90857 36.9922C5.90857 37.0124 5.90857 37.0326 5.89854 37.0528L4.18372 47.3638C4.11352 47.7374 3.80265 48 3.44163 48Z" fill="#A61D1D"/>
<path d="M19.607 28.0749C19.1959 28.0749 18.8549 27.7316 18.8549 27.3175V23.5001C18.8549 21.9348 17.6315 20.8441 15.8866 20.8441H10.351C9.93984 20.8441 9.59888 20.5008 9.59888 20.0867C9.59888 19.6726 9.93984 19.3293 10.351 19.3293H15.8866C17.0899 19.3293 18.193 19.7231 19.0154 20.4503C19.8778 21.2178 20.3591 22.2984 20.3591 23.5001V27.3175C20.3591 27.7417 20.0282 28.0749 19.607 28.0749Z" fill="#A61D1D"/>
<path d="M19.607 32.0034C19.1959 32.0034 18.8549 31.66 18.8549 31.2459V27.3276C18.8549 25.7522 17.5813 24.5605 15.8866 24.5605H10.351C9.93984 24.5605 9.59888 24.2171 9.59888 23.8031C9.59888 23.389 9.93984 23.0457 10.351 23.0457H15.8866C18.4337 23.0457 20.3591 24.8837 20.3591 27.3276V31.2459C20.3591 31.66 20.0282 32.0034 19.607 32.0034Z" fill="#A61D1D"/>
<path d="M19.607 35.4471C19.1959 35.4471 18.8549 35.1037 18.8549 34.6897V31.2358C18.8549 29.62 17.5512 28.3577 15.8866 28.3577H10.351C9.93984 28.3577 9.59888 28.0143 9.59888 27.6003C9.59888 27.1862 9.93984 26.8428 10.351 26.8428H15.8866C18.3936 26.8428 20.3591 28.7717 20.3591 31.2358V34.6897C20.3591 35.1138 20.0282 35.4471 19.607 35.4471Z" fill="#A61D1D"/>
<path d="M15.8966 39.7694H15.1244C13.8609 39.7694 12.838 38.7393 12.838 37.4669C12.838 36.9215 13.0285 36.4267 13.3394 36.0328H12.4569C12.0458 36.0328 11.7048 35.6895 11.7048 35.2754C11.7048 34.8613 12.0458 34.518 12.4569 34.518H15.9969C16.408 34.518 16.749 34.8613 16.749 35.2754V35.9217C16.749 36.3358 16.408 36.6792 15.9969 36.6792H15.1244C14.6932 36.6792 14.3422 37.0326 14.3422 37.4669C14.3422 37.9011 14.6932 38.2546 15.1244 38.2546H15.8966C17.5312 38.2546 18.8549 36.9114 18.8549 35.2754C18.8549 33.6293 17.5212 32.2861 15.8866 32.2861H10.351C9.93984 32.2861 9.59888 31.9428 9.59888 31.5287C9.59888 31.1147 9.93984 30.7713 10.351 30.7713H15.8866C18.3535 30.7713 20.3591 32.7911 20.3591 35.2754C20.3591 37.7597 18.3635 39.7694 15.8966 39.7694Z" fill="#A61D1D"/>
<path d="M12.1762 48C11.765 48 11.4241 47.6567 11.4241 47.2426V43.7787C11.4241 42.3143 12.6074 41.1328 14.0515 41.1328C14.6732 41.1328 15.1746 40.6278 15.1746 40.0017V39.0322C15.1746 38.6181 15.5156 38.2748 15.9267 38.2748C16.3379 38.2748 16.6789 38.6181 16.6789 39.0322V40.0017C16.6789 41.466 15.4955 42.6476 14.0515 42.6476C13.4297 42.6476 12.9283 43.1525 12.9283 43.7787V47.2426C12.9283 47.6567 12.5974 48 12.1762 48Z" fill="#A61D1D"/>
<path d="M15.606 17.2489C13.6104 17.2489 12.2866 17.0974 11.1635 16.7338C10.7724 16.6026 10.5518 16.1784 10.6721 15.7845C10.8025 15.3907 11.2236 15.1685 11.6147 15.2897C12.5674 15.5927 13.7909 15.7341 15.5959 15.7341C20.1688 15.7341 21.3822 14.8857 23.789 11.5127C24.8821 9.96759 26.2459 9.06879 27.5094 8.54365C26.0253 8.00841 24.4408 7.10961 23.4881 5.62507L23.3678 5.44329C22.4853 4.04964 21.5627 2.6055 20.4295 1.93898C19.6774 1.49463 18.3938 1.07047 15.977 2.56511C15.7363 2.71659 15.4355 2.71659 15.1848 2.56511C12.3669 0.818001 10.9429 1.58552 9.93001 2.57521C9.62916 2.86807 9.15784 2.85798 8.86702 2.55501C8.5762 2.25204 8.58623 1.77739 8.88707 1.48453C10.7423 -0.313075 12.9385 -0.454459 15.5759 1.05027C20.5398 -1.77741 22.7962 1.77739 24.6213 4.64548L24.7316 4.82726C26.4364 7.50346 31.1998 7.84682 31.25 7.84682C31.6611 7.87712 31.982 8.23058 31.9519 8.65473C31.9219 9.06879 31.5709 9.39195 31.1597 9.36166C30.9993 9.35156 27.2888 9.18998 24.9924 12.4115C23.7088 14.2192 22.6157 15.4917 21.1616 16.2693C19.868 16.956 18.2434 17.2489 15.606 17.2489Z" fill="#A61D1D"/>
<path d="M6.53037 12.0479C6.30975 12.0479 6.09916 11.957 5.94874 11.7753C3.85284 9.18994 0.914578 9.33132 0.794239 9.34142C0.383083 9.36162 0.0220676 9.04855 0.00201116 8.6345C-0.0280735 8.22045 0.282801 7.85689 0.703985 7.82659C0.73407 7.82659 4.264 7.55392 6.09916 5.55434C6.37995 5.25137 6.8613 5.23118 7.16215 5.51394C7.46299 5.79671 7.48305 6.28146 7.20226 6.58443C6.34986 7.51352 5.24676 8.13965 4.1938 8.54361C5.15651 8.98796 6.19944 9.68478 7.11201 10.8058C7.37274 11.1289 7.33263 11.6036 7.0017 11.8762C6.87133 11.9873 6.70085 12.0479 6.53037 12.0479Z" fill="#A61D1D"/>
<path d="M15.8265 10.9169C14.7334 10.9169 13.4999 10.5836 12.3266 9.54342L11.9355 9.83629C11.6046 10.0888 11.1333 10.008 10.8825 9.6747C10.6419 9.34144 10.7121 8.86679 11.043 8.61432L11.9355 7.95789C11.9455 7.9478 11.9455 7.9478 11.9556 7.9478L14.7735 5.86743L14.7835 5.85733C15.4053 5.42308 16.1875 5.39278 16.8293 5.79673L20.2489 7.9074C20.4495 8.02859 20.5798 8.25076 20.5999 8.48304C20.6199 8.72541 20.5297 8.95768 20.3492 9.11927C20.299 9.15966 19.1959 10.1393 17.6115 10.6341C17.1 10.7957 16.4883 10.9169 15.8265 10.9169ZM13.5801 8.61432C14.6231 9.40203 15.8164 9.60401 17.1301 9.20006C17.6516 9.03847 18.1229 8.8062 18.4839 8.59412L16.0471 7.06919C15.9167 6.9884 15.7863 6.9884 15.656 7.07929L13.5801 8.61432Z" fill="#A61D1D"/>
<path d="M21.2919 10.1191C21.1716 10.1191 21.0412 10.0888 20.9209 10.0181L19.4868 9.21017C19.1258 9.0082 18.9955 8.54365 19.2061 8.18009C19.4066 7.81653 19.8679 7.68524 20.2289 7.89732L21.663 8.70523C22.024 8.90721 22.1543 9.37176 21.9438 9.73531C21.8034 9.98779 21.5527 10.1191 21.2919 10.1191Z" fill="#A61D1D"/>
</svg>
