<svg width="55" height="56" viewBox="0 0 55 56" fill="none" xmlns="http://www.w3.org/2000/svg">
<path d="M53.4409 47.3158H51.9617L54.3475 33.6693C54.5861 32.381 54.3475 31.045 53.6795 29.9475L43.2299 12.293V9.04834C43.1822 4.37226 39.3649 0.555054 34.6412 0.555054H8.541C3.81721 0.555054 0 4.37226 0 9.09606C0 9.62092 0.429436 10.0504 0.954302 10.0504H10.0202V46.791C10.0202 47.3158 10.4496 47.7453 10.9745 47.7453H33.8777C33.7823 47.8884 33.6869 48.0793 33.6869 48.2701V55.0457C33.6869 55.5706 34.1163 56 34.6412 56C35.166 56 35.5955 55.5706 35.5955 55.0457V49.2722H52.3912V55.0457C52.3912 55.5706 52.8206 56 53.3455 56C53.8703 56 54.2998 55.5706 54.2998 55.0457V48.2701C54.3952 47.7453 53.9658 47.3158 53.4409 47.3158ZM43.2299 16.2056L51.9617 30.9496C52.3912 31.6653 52.5343 32.5242 52.3912 33.3353L49.9577 47.3158H41.369C40.7964 45.7412 36.0726 33.0013 33.83 28.3252C33.4483 27.5618 33.496 27.0846 33.5914 26.9415C33.6869 26.7984 34.0209 26.7029 34.6412 26.7506C36.4066 26.9892 39.6035 28.9932 41.369 33.6216C41.5121 34.051 41.9893 34.3373 42.4664 34.2419C42.9436 34.1465 43.2776 33.7648 43.2776 33.2876V16.2056H43.2299ZM8.541 2.51137H29.2493C27.5793 3.89511 26.4342 5.85143 26.1956 8.09404H2.00403C2.48118 4.94484 5.24866 2.51137 8.541 2.51137ZM11.9765 10.0504H27.1022C27.627 10.0504 28.0565 9.62092 28.0565 9.09606C28.0565 5.46971 31.0148 2.51137 34.6412 2.51137C38.2675 2.51137 41.2258 5.46971 41.2258 9.09606V12.6747C41.2258 12.7701 41.2736 12.8178 41.2736 12.9133V29.375C39.3172 26.6075 36.7883 25.0806 34.8797 24.842C33.6391 24.6512 32.5894 25.0329 32.0168 25.7963C31.5874 26.3689 31.2534 27.4664 32.0645 29.1841C32.6371 30.4247 33.4483 32.3333 34.3071 34.4328H16.3663C15.8414 34.4328 15.412 34.8622 15.412 35.3871C15.412 35.9119 15.8414 36.3414 16.3663 36.3414H35.0706C35.5 37.4865 35.9772 38.6317 36.4066 39.7291H16.3663C15.8414 39.7291 15.412 40.1586 15.412 40.6834C15.412 41.2083 15.8414 41.6377 16.3663 41.6377H37.0269C37.0746 41.6377 37.1223 41.6377 37.1223 41.6377C37.7426 43.2123 38.2675 44.6438 38.6969 45.789H11.9765V10.0504Z" fill="#A61D1D"/>
<path d="M38.7448 53.2325C39.6144 53.2325 40.3194 52.5275 40.3194 51.6579C40.3194 50.7883 39.6144 50.0833 38.7448 50.0833C37.8751 50.0833 37.1702 50.7883 37.1702 51.6579C37.1702 52.5275 37.8751 53.2325 38.7448 53.2325Z" fill="#A61D1D"/>
<path d="M21.9489 29.1841C22.8555 29.7567 23.9052 30.0907 25.1458 30.1862V30.8542C25.1458 31.2359 25.3366 31.4745 25.4798 31.6176C25.6706 31.7608 25.8615 31.8562 26.1001 31.8562C26.3387 31.8562 26.5295 31.7608 26.7204 31.6176C26.9589 31.4267 27.0544 31.1882 27.0544 30.8542V30.1384C28.2473 29.9953 29.1061 29.5659 29.7264 28.8978C30.3944 28.1821 30.7284 27.371 30.8239 26.5121C30.8716 26.0827 30.8239 25.6055 30.7284 25.0806C30.633 24.5558 30.4422 24.0786 30.1559 23.6015C29.8219 23.1243 29.3924 22.7426 28.8676 22.4086C28.3904 22.1223 27.8178 21.8837 27.0544 21.6929V16.2056C27.2452 16.2533 27.3884 16.3488 27.5315 16.4442C27.8178 16.6351 28.1041 16.8736 28.295 17.1599C28.4858 17.3985 28.629 17.6848 28.7244 17.9711C28.8198 18.3051 28.8676 18.5914 28.9153 18.8777C29.0107 19.498 29.3924 19.6888 29.7741 19.6411C29.965 19.6411 30.4421 19.498 30.5853 18.7345C30.5376 17.4939 30.1559 16.4919 29.3924 15.7762C28.7721 15.1559 27.961 14.7265 27.0067 14.5356V13.6767C27.0067 13.3904 26.9112 13.1519 26.6727 12.9133C26.2909 12.627 25.7661 12.5793 25.3844 12.961C25.2412 13.1042 25.0981 13.295 25.0981 13.6767V14.4402C24.5255 14.4879 23.9529 14.631 23.428 14.8219C22.76 15.0605 22.2352 15.3945 21.758 15.8239C21.3286 16.2533 20.9946 16.7305 20.756 17.3031C20.5174 17.8757 20.422 18.496 20.5174 19.164C20.6606 20.3091 21.1377 21.3111 21.9966 22.0269C22.8077 22.6949 23.8575 23.1243 25.0981 23.2675V28.6116C24.1438 28.5161 23.3803 28.2776 22.8555 27.8481C22.2352 27.371 21.8534 26.7984 21.7103 26.1781C21.6626 25.8441 21.424 25.4624 20.8514 25.4624C20.4697 25.4624 20.2788 25.6055 20.1834 25.7009C20.088 25.7964 19.9448 26.0349 20.0403 26.3689C20.2788 27.5618 20.8991 28.5161 21.9489 29.1841ZM22.9986 20.4523C22.8077 20.2614 22.6169 20.0228 22.5214 19.7843C22.426 19.498 22.3783 19.2594 22.3306 18.9731C22.2829 18.162 22.5214 17.4939 23.094 16.9214C23.5712 16.4442 24.2392 16.1102 25.0981 16.0148V21.502C24.6209 21.4066 24.2392 21.3111 23.9529 21.1203C23.5235 20.9294 23.2372 20.6909 22.9986 20.4523ZM28.6767 27.6573C28.4858 27.8481 28.2473 28.0867 27.9132 28.2298C27.7224 28.3253 27.4361 28.4207 27.0544 28.5161V23.506C27.7224 23.6969 28.1995 23.9832 28.5335 24.3649C28.963 24.8421 29.1538 25.5578 29.1061 26.5121C29.1061 26.5598 29.1061 26.7507 29.0107 27.037C28.963 27.2278 28.8676 27.4187 28.6767 27.6573Z" fill="#A61D1D"/>
</svg>
