<svg width="54" height="54" viewBox="0 0 54 54" fill="none" xmlns="http://www.w3.org/2000/svg">
<path d="M13.4844 5.73785C12.4143 5.73785 11.3442 6.71877 10.8092 7.52133C10.2741 6.71877 9.20404 5.73785 8.13395 5.73785C6.52883 5.73785 5.45874 6.80794 5.45874 8.41307C5.45874 12.2475 10.8092 15.547 10.8092 15.547C10.8092 15.547 16.1596 12.2475 16.1596 8.41307C16.1596 6.80794 15.0895 5.73785 13.4844 5.73785Z" stroke="#A61D1D" stroke-width="1.9928" stroke-miterlimit="10"/>
<path d="M50.0457 24.4644H42.9118L39.3448 16.4387L33.9944 27.1396L27.7522 12.8718L21.5101 28.0313L17.0514 18.2222L13.4844 24.4644H3.67529" stroke="#A61D1D" stroke-width="2" stroke-miterlimit="10"/>
<path d="M52.7208 1.27917H1V47.6495H52.7208V1.27917Z" stroke="#A61D1D" stroke-width="2" stroke-miterlimit="10"/>
<path d="M1 33.3817H52.7208" stroke="#A61D1D" stroke-width="2" stroke-miterlimit="10"/>
<path d="M47.3703 53C45.8543 53 44.6951 51.8407 44.6951 50.3247V47.6495H50.0455V50.3247C50.0455 51.8407 48.8862 53 47.3703 53Z" stroke="#A61D1D" stroke-width="2" stroke-miterlimit="10"/>
<path d="M6.35051 53C4.83455 53 3.67529 51.8407 3.67529 50.3247V47.6495H9.02572V50.3247C9.02572 51.8407 7.86646 53 6.35051 53Z" stroke="#A61D1D" stroke-width="2" stroke-miterlimit="10"/>
<path d="M8.13395 43.1909C9.61143 43.1909 10.8092 41.9931 10.8092 40.5157C10.8092 39.0382 9.61143 37.8405 8.13395 37.8405C6.65647 37.8405 5.45874 39.0382 5.45874 40.5157C5.45874 41.9931 6.65647 43.1909 8.13395 43.1909Z" stroke="#A61D1D" stroke-width="2" stroke-miterlimit="10"/>
<path d="M17.0512 43.1909C18.5287 43.1909 19.7264 41.9931 19.7264 40.5157C19.7264 39.0382 18.5287 37.8405 17.0512 37.8405C15.5737 37.8405 14.376 39.0382 14.376 40.5157C14.376 41.9931 15.5737 43.1909 17.0512 43.1909Z" stroke="#A61D1D" stroke-width="2" stroke-miterlimit="10"/>
<path d="M46.4785 42.2991C47.4635 42.2991 48.262 41.5006 48.262 40.5157C48.262 39.5307 47.4635 38.7322 46.4785 38.7322C45.4936 38.7322 44.6951 39.5307 44.6951 40.5157C44.6951 41.5006 45.4936 42.2991 46.4785 42.2991Z" stroke="#A61D1D" stroke-width="2" stroke-miterlimit="10"/>
<path d="M29.5357 42.2991C30.5207 42.2991 31.3191 41.5006 31.3191 40.5157C31.3191 39.5307 30.5207 38.7322 29.5357 38.7322C28.5507 38.7322 27.7522 39.5307 27.7522 40.5157C27.7522 41.5006 28.5507 42.2991 29.5357 42.2991Z" stroke="#A61D1D" stroke-width="2" stroke-miterlimit="10"/>
<path d="M22.4016 40.5156H27.752" stroke="#A61D1D" stroke-width="2" stroke-miterlimit="10"/>
<path d="M33.1025 40.5156H42.0199" stroke="#A61D1D" stroke-width="2" stroke-miterlimit="10"/>
<path d="M35.7778 4.84613H50.0456" stroke="#A61D1D" stroke-width="2" stroke-miterlimit="10"/>
<path d="M35.7778 8.41309H50.0456" stroke="#A61D1D" stroke-width="2" stroke-miterlimit="10"/>
<path d="M35.7778 11.98H45.5869" stroke="#A61D1D" stroke-width="2" stroke-miterlimit="10"/>
</svg>
