<svg width="35" height="50" viewBox="0 0 35 50" fill="none" xmlns="http://www.w3.org/2000/svg">
<path d="M17.207 26.1207C21.6824 26.1207 25.3104 22.4927 25.3104 18.0173C25.3104 13.5419 21.6824 9.91382 17.207 9.91382C12.7316 9.91382 9.10352 13.5419 9.10352 18.0173C9.10352 22.4927 12.7316 26.1207 17.207 26.1207Z" stroke="#A61D1D" stroke-width="2" stroke-miterlimit="10"/>
<path d="M33.4138 18.0172C33.4138 27.7414 17.2069 48 17.2069 48C17.2069 48 1 27.7414 1 18.0172C1 8.61724 7.8069 1 17.2069 1C26.6069 1 33.4138 8.61724 33.4138 18.0172Z" stroke="#A61D1D" stroke-width="2" stroke-miterlimit="10"/>
<path d="M17.207 13.1552V22.8793" stroke="#A61D1D" stroke-width="2" stroke-miterlimit="10"/>
<path d="M12.3447 18.0173H22.0689" stroke="#A61D1D" stroke-width="2" stroke-miterlimit="10"/>
</svg>
