<svg width="12" height="12" viewBox="0 0 12 12" fill="none" xmlns="http://www.w3.org/2000/svg">
<g clip-path="url(#clip0)">
<path d="M11.0075 3.6282C8.90101 5.73465 6.78407 7.85159 4.67312 9.96253C3.79756 9.08847 2.916 8.20691 2.03894 7.32985C4.14689 5.2219 6.26383 3.10346 8.37477 0.994019C9.24883 1.86808 10.1304 2.74964 11.0075 3.6282ZM8.38077 2.04949C6.61915 3.81111 4.85603 5.57423 3.09891 7.33285C3.26833 7.50077 3.44074 7.67468 3.61165 7.84409C5.37027 6.08547 7.13339 4.32086 8.89501 2.55924C8.7256 2.39132 8.55168 2.21891 8.38077 2.04949Z" fill="#223645"/>
<path d="M0 12.0001C0.569715 10.6807 1.13043 9.38087 1.69115 8.08252C2.43478 8.82615 3.17241 9.56378 3.91754 10.3089C2.61769 10.8696 1.31934 11.4303 0 12.0001Z" fill="#223645"/>
<path d="M8.922 0.428833C9.1064 0.242926 9.33279 0.110992 9.59516 0.0480238C10.1364 -0.0794125 10.6146 0.0465246 11.0194 0.428833C11.2099 0.608743 11.3928 0.797649 11.5757 0.985055C12.1289 1.55327 12.1424 2.45732 11.6086 3.04353C11.5952 3.05852 11.5832 3.07501 11.5757 3.08401C10.6896 2.19795 9.80955 1.31639 8.922 0.428833Z" fill="#223645"/>
</g>
<defs>
<clipPath id="clip0">
<rect width="12" height="12" fill="white"/>
</clipPath>
</defs>
</svg>
