<svg width="40" height="42" viewBox="0 0 40 42" fill="none" xmlns="http://www.w3.org/2000/svg">
<mask id="path-1-outside-1" maskUnits="userSpaceOnUse" x="0.00244141" y="-0.00170898" width="40" height="42" fill="black">
<rect fill="white" x="0.00244141" y="-0.00170898" width="40" height="42"/>
<path d="M38.8529 27.6122C35.8625 13.9345 25.7991 4.59401 22.7913 2.05826C21.5605 1.01663 19.8529 0.717809 18.3273 1.27277C15.883 2.16071 13.8027 4.06466 12.7799 5.11482C11.9391 5.98568 11.6444 7.26637 12.0431 8.38483C12.5979 9.96434 13.8807 11.578 14.8602 12.6623C15.8483 13.7552 17.4779 13.9771 18.7174 13.1831L20.9624 11.7573C21.0231 11.7146 21.0837 11.6719 21.1357 11.6292C21.8898 13.0124 22.3579 14.3955 22.6873 16.2397C23.0687 18.3656 23.7448 21.0551 24.9149 23.4371C20.3383 20.7562 16.1604 21.2685 13.1266 22.4553C7.52715 17.9814 1.70234 19.7658 1.45097 19.8427C1.11292 19.9537 0.922228 20.3123 1.03491 20.6452C1.14759 20.9782 1.51164 21.166 1.84969 21.0551C2.06639 20.9867 6.9204 19.5268 11.7918 23.0358C9.56411 24.1543 8.22059 25.4691 8.18591 25.5033C7.93455 25.7594 7.93455 26.1607 8.19458 26.4083C8.44595 26.6559 8.86201 26.6559 9.11338 26.3998C9.25206 26.2632 10.7256 24.8288 13.0833 23.7872C13.196 23.7701 13.3086 23.7274 13.404 23.6506C16.6978 22.3016 21.5778 21.8149 26.8999 26.4254C26.9085 26.4339 26.9172 26.4425 26.9259 26.451C26.9345 26.4595 26.9345 26.4595 26.9432 26.4681C26.9605 26.4851 26.9779 26.4937 26.9952 26.5022C26.9952 26.5022 26.9952 26.5022 27.0039 26.5022C27.0212 26.5108 27.0386 26.5193 27.0559 26.5278C27.0646 26.5278 27.0646 26.5278 27.0732 26.5364C27.0906 26.5449 27.1079 26.5449 27.1166 26.5534C27.1252 26.5534 27.1252 26.5535 27.1339 26.562C27.1512 26.5705 27.1686 26.5705 27.1772 26.5705C27.1859 26.5705 27.1859 26.5705 27.1946 26.5705C27.2119 26.5705 27.2293 26.5791 27.2466 26.5791C27.2553 26.5791 27.2553 26.5791 27.2639 26.5791C27.2813 26.5791 27.3073 26.5791 27.3246 26.5791C27.3419 26.5791 27.3679 26.5791 27.3853 26.5791C27.3939 26.5791 27.3939 26.5791 27.4026 26.5791C27.4199 26.5791 27.4373 26.5791 27.4459 26.5705C27.4546 26.5705 27.4633 26.5705 27.4633 26.562C27.4806 26.562 27.4893 26.5534 27.5066 26.5534C27.5153 26.5534 27.524 26.5535 27.524 26.5449C27.5413 26.5364 27.55 26.5364 27.5673 26.5278C27.576 26.5278 27.5846 26.5193 27.5846 26.5193C27.602 26.5108 27.6106 26.5022 27.628 26.4937C27.628 26.4937 27.6366 26.4851 27.6453 26.4851C27.6626 26.4766 27.68 26.4595 27.6973 26.451C27.706 26.4425 27.706 26.4425 27.7147 26.4339C27.7233 26.4254 27.732 26.4168 27.7407 26.4168L27.7493 26.4083C27.758 26.3998 27.7667 26.3998 27.7667 26.3912C27.7753 26.3827 27.7927 26.3742 27.8013 26.3571C27.8013 26.3571 27.8013 26.3571 27.81 26.3485L27.8187 26.34C27.8273 26.3315 27.836 26.3144 27.8447 26.3059C27.8533 26.2973 27.8533 26.2973 27.8533 26.2888C27.862 26.2802 27.8707 26.2632 27.8793 26.2546C27.8793 26.2461 27.888 26.2375 27.888 26.229C27.8967 26.2205 27.8967 26.2034 27.9053 26.1949C27.9053 26.1863 27.914 26.1778 27.914 26.1692C27.914 26.1607 27.9227 26.1522 27.9227 26.1351C27.9227 26.1266 27.9314 26.118 27.9314 26.1095C27.9314 26.1009 27.94 26.0924 27.94 26.0839C27.94 26.0753 27.9487 26.0668 27.9487 26.0497C27.9487 26.0412 27.9487 26.0326 27.9574 26.0241C27.9574 26.0156 27.9574 26.007 27.9574 25.99C27.9574 25.9814 27.9574 25.9729 27.9574 25.9558C27.9574 25.9473 27.9574 25.9387 27.9574 25.9216C27.9574 25.9131 27.9574 25.896 27.9574 25.8875C27.9574 25.879 27.9574 25.8704 27.9574 25.8619C27.9574 25.8533 27.9574 25.8363 27.9574 25.8277C27.9574 25.8192 27.9574 25.8107 27.9487 25.8021C27.9487 25.7936 27.94 25.7765 27.94 25.768C27.94 25.7594 27.9314 25.7509 27.9314 25.7424C27.9314 25.7338 27.9227 25.7167 27.9227 25.7082C27.9227 25.6997 27.914 25.6911 27.914 25.6826C27.914 25.674 27.9053 25.6655 27.9053 25.6484C27.8967 25.6399 27.8967 25.6314 27.888 25.6228C27.8793 25.6143 27.8793 25.6057 27.8707 25.5972C27.862 25.5887 27.862 25.5801 27.8533 25.5631C27.8447 25.5545 27.8447 25.546 27.836 25.5374C27.8273 25.5289 27.8187 25.5204 27.81 25.5118C27.81 25.5033 27.8013 25.5033 27.8013 25.4948C25.5737 22.9334 24.4729 18.895 23.9528 15.9579C23.5454 13.6954 22.956 12.0732 21.9072 10.3485C21.8985 10.3315 21.8812 10.3144 21.8725 10.2973C21.9505 9.59721 21.6125 8.92272 21.4044 8.5129C21.3524 8.40191 21.2918 8.29945 21.2484 8.197L20.8237 7.24929C20.5983 6.75409 20.1736 6.3955 19.6449 6.2589C19.1161 6.12229 18.5614 6.21621 18.1193 6.53211L17.2612 7.14684C17.0965 7.26637 16.9925 7.46274 16.9925 7.66765V9.52037C16.9925 9.87042 17.2872 10.1607 17.6426 10.1607C17.998 10.1607 18.2927 9.87042 18.2927 9.52037V8.04331L18.8821 7.61642C19.0554 7.49689 19.2201 7.51397 19.3068 7.53958C19.3935 7.56519 19.5495 7.62496 19.6362 7.81279L20.0696 8.76904C20.1216 8.88857 20.1823 9.0081 20.2516 9.13616C20.711 10.0241 20.7543 10.3229 20.2343 10.6901L18.0153 12.0988C17.3132 12.5428 16.3944 12.4233 15.831 11.8C14.9295 10.8096 13.7594 9.33254 13.274 7.95794C13.0399 7.29198 13.2133 6.52357 13.7247 5.99422C14.6695 5.0209 16.5764 3.27064 18.7781 2.46808C19.8529 2.07533 21.0664 2.28878 21.9418 3.03158C24.0308 4.79038 34.6056 14.2504 37.5787 27.8768C37.7954 28.8501 37.7174 29.8747 37.362 30.8309L37.3447 30.8822C36.6772 32.7093 35.0564 34.0497 33.1234 34.3912C33.0541 34.3998 32.9847 34.4254 32.9241 34.4595C32.8634 34.4937 26.8999 37.7039 22.1672 37.1917C19.1941 36.8672 15.4149 35.911 12.7799 35.1682C10.4829 34.5193 8.09057 34.7669 6.03628 35.8597C3.8173 37.038 2.23975 38.4382 1.35562 40.0433C1.18226 40.3507 1.29495 40.7434 1.61566 40.9142C1.71101 40.9654 1.82369 40.991 1.9277 40.991C2.15307 40.991 2.37843 40.8715 2.49978 40.658C3.27122 39.2834 4.66675 38.0454 6.66037 36.9867C8.41995 36.0561 10.4656 35.8512 12.4332 36.4062C15.1202 37.166 18.9688 38.1394 22.0372 38.4723C26.9085 39.0017 32.638 36.0817 33.4701 35.6378C35.8105 35.1853 37.7607 33.5374 38.5755 31.3261L38.5928 31.2749C39.0262 30.0881 39.1129 28.816 38.8529 27.6122Z"/>
</mask>
<path d="M38.8529 27.6122C35.8625 13.9345 25.7991 4.59401 22.7913 2.05826C21.5605 1.01663 19.8529 0.717809 18.3273 1.27277C15.883 2.16071 13.8027 4.06466 12.7799 5.11482C11.9391 5.98568 11.6444 7.26637 12.0431 8.38483C12.5979 9.96434 13.8807 11.578 14.8602 12.6623C15.8483 13.7552 17.4779 13.9771 18.7174 13.1831L20.9624 11.7573C21.0231 11.7146 21.0837 11.6719 21.1357 11.6292C21.8898 13.0124 22.3579 14.3955 22.6873 16.2397C23.0687 18.3656 23.7448 21.0551 24.9149 23.4371C20.3383 20.7562 16.1604 21.2685 13.1266 22.4553C7.52715 17.9814 1.70234 19.7658 1.45097 19.8427C1.11292 19.9537 0.922228 20.3123 1.03491 20.6452C1.14759 20.9782 1.51164 21.166 1.84969 21.0551C2.06639 20.9867 6.9204 19.5268 11.7918 23.0358C9.56411 24.1543 8.22059 25.4691 8.18591 25.5033C7.93455 25.7594 7.93455 26.1607 8.19458 26.4083C8.44595 26.6559 8.86201 26.6559 9.11338 26.3998C9.25206 26.2632 10.7256 24.8288 13.0833 23.7872C13.196 23.7701 13.3086 23.7274 13.404 23.6506C16.6978 22.3016 21.5778 21.8149 26.8999 26.4254C26.9085 26.4339 26.9172 26.4425 26.9259 26.451C26.9345 26.4595 26.9345 26.4595 26.9432 26.4681C26.9605 26.4851 26.9779 26.4937 26.9952 26.5022C26.9952 26.5022 26.9952 26.5022 27.0039 26.5022C27.0212 26.5108 27.0386 26.5193 27.0559 26.5278C27.0646 26.5278 27.0646 26.5278 27.0732 26.5364C27.0906 26.5449 27.1079 26.5449 27.1166 26.5534C27.1252 26.5534 27.1252 26.5535 27.1339 26.562C27.1512 26.5705 27.1686 26.5705 27.1772 26.5705C27.1859 26.5705 27.1859 26.5705 27.1946 26.5705C27.2119 26.5705 27.2293 26.5791 27.2466 26.5791C27.2553 26.5791 27.2553 26.5791 27.2639 26.5791C27.2813 26.5791 27.3073 26.5791 27.3246 26.5791C27.3419 26.5791 27.3679 26.5791 27.3853 26.5791C27.3939 26.5791 27.3939 26.5791 27.4026 26.5791C27.4199 26.5791 27.4373 26.5791 27.4459 26.5705C27.4546 26.5705 27.4633 26.5705 27.4633 26.562C27.4806 26.562 27.4893 26.5534 27.5066 26.5534C27.5153 26.5534 27.524 26.5535 27.524 26.5449C27.5413 26.5364 27.55 26.5364 27.5673 26.5278C27.576 26.5278 27.5846 26.5193 27.5846 26.5193C27.602 26.5108 27.6106 26.5022 27.628 26.4937C27.628 26.4937 27.6366 26.4851 27.6453 26.4851C27.6626 26.4766 27.68 26.4595 27.6973 26.451C27.706 26.4425 27.706 26.4425 27.7147 26.4339C27.7233 26.4254 27.732 26.4168 27.7407 26.4168L27.7493 26.4083C27.758 26.3998 27.7667 26.3998 27.7667 26.3912C27.7753 26.3827 27.7927 26.3742 27.8013 26.3571C27.8013 26.3571 27.8013 26.3571 27.81 26.3485L27.8187 26.34C27.8273 26.3315 27.836 26.3144 27.8447 26.3059C27.8533 26.2973 27.8533 26.2973 27.8533 26.2888C27.862 26.2802 27.8707 26.2632 27.8793 26.2546C27.8793 26.2461 27.888 26.2375 27.888 26.229C27.8967 26.2205 27.8967 26.2034 27.9053 26.1949C27.9053 26.1863 27.914 26.1778 27.914 26.1692C27.914 26.1607 27.9227 26.1522 27.9227 26.1351C27.9227 26.1266 27.9314 26.118 27.9314 26.1095C27.9314 26.1009 27.94 26.0924 27.94 26.0839C27.94 26.0753 27.9487 26.0668 27.9487 26.0497C27.9487 26.0412 27.9487 26.0326 27.9574 26.0241C27.9574 26.0156 27.9574 26.007 27.9574 25.99C27.9574 25.9814 27.9574 25.9729 27.9574 25.9558C27.9574 25.9473 27.9574 25.9387 27.9574 25.9216C27.9574 25.9131 27.9574 25.896 27.9574 25.8875C27.9574 25.879 27.9574 25.8704 27.9574 25.8619C27.9574 25.8533 27.9574 25.8363 27.9574 25.8277C27.9574 25.8192 27.9574 25.8107 27.9487 25.8021C27.9487 25.7936 27.94 25.7765 27.94 25.768C27.94 25.7594 27.9314 25.7509 27.9314 25.7424C27.9314 25.7338 27.9227 25.7167 27.9227 25.7082C27.9227 25.6997 27.914 25.6911 27.914 25.6826C27.914 25.674 27.9053 25.6655 27.9053 25.6484C27.8967 25.6399 27.8967 25.6314 27.888 25.6228C27.8793 25.6143 27.8793 25.6057 27.8707 25.5972C27.862 25.5887 27.862 25.5801 27.8533 25.5631C27.8447 25.5545 27.8447 25.546 27.836 25.5374C27.8273 25.5289 27.8187 25.5204 27.81 25.5118C27.81 25.5033 27.8013 25.5033 27.8013 25.4948C25.5737 22.9334 24.4729 18.895 23.9528 15.9579C23.5454 13.6954 22.956 12.0732 21.9072 10.3485C21.8985 10.3315 21.8812 10.3144 21.8725 10.2973C21.9505 9.59721 21.6125 8.92272 21.4044 8.5129C21.3524 8.40191 21.2918 8.29945 21.2484 8.197L20.8237 7.24929C20.5983 6.75409 20.1736 6.3955 19.6449 6.2589C19.1161 6.12229 18.5614 6.21621 18.1193 6.53211L17.2612 7.14684C17.0965 7.26637 16.9925 7.46274 16.9925 7.66765V9.52037C16.9925 9.87042 17.2872 10.1607 17.6426 10.1607C17.998 10.1607 18.2927 9.87042 18.2927 9.52037V8.04331L18.8821 7.61642C19.0554 7.49689 19.2201 7.51397 19.3068 7.53958C19.3935 7.56519 19.5495 7.62496 19.6362 7.81279L20.0696 8.76904C20.1216 8.88857 20.1823 9.0081 20.2516 9.13616C20.711 10.0241 20.7543 10.3229 20.2343 10.6901L18.0153 12.0988C17.3132 12.5428 16.3944 12.4233 15.831 11.8C14.9295 10.8096 13.7594 9.33254 13.274 7.95794C13.0399 7.29198 13.2133 6.52357 13.7247 5.99422C14.6695 5.0209 16.5764 3.27064 18.7781 2.46808C19.8529 2.07533 21.0664 2.28878 21.9418 3.03158C24.0308 4.79038 34.6056 14.2504 37.5787 27.8768C37.7954 28.8501 37.7174 29.8747 37.362 30.8309L37.3447 30.8822C36.6772 32.7093 35.0564 34.0497 33.1234 34.3912C33.0541 34.3998 32.9847 34.4254 32.9241 34.4595C32.8634 34.4937 26.8999 37.7039 22.1672 37.1917C19.1941 36.8672 15.4149 35.911 12.7799 35.1682C10.4829 34.5193 8.09057 34.7669 6.03628 35.8597C3.8173 37.038 2.23975 38.4382 1.35562 40.0433C1.18226 40.3507 1.29495 40.7434 1.61566 40.9142C1.71101 40.9654 1.82369 40.991 1.9277 40.991C2.15307 40.991 2.37843 40.8715 2.49978 40.658C3.27122 39.2834 4.66675 38.0454 6.66037 36.9867C8.41995 36.0561 10.4656 35.8512 12.4332 36.4062C15.1202 37.166 18.9688 38.1394 22.0372 38.4723C26.9085 39.0017 32.638 36.0817 33.4701 35.6378C35.8105 35.1853 37.7607 33.5374 38.5755 31.3261L38.5928 31.2749C39.0262 30.0881 39.1129 28.816 38.8529 27.6122Z" fill="#E12656"/>
<path d="M38.8529 27.6122C35.8625 13.9345 25.7991 4.59401 22.7913 2.05826C21.5605 1.01663 19.8529 0.717809 18.3273 1.27277C15.883 2.16071 13.8027 4.06466 12.7799 5.11482C11.9391 5.98568 11.6444 7.26637 12.0431 8.38483C12.5979 9.96434 13.8807 11.578 14.8602 12.6623C15.8483 13.7552 17.4779 13.9771 18.7174 13.1831L20.9624 11.7573C21.0231 11.7146 21.0837 11.6719 21.1357 11.6292C21.8898 13.0124 22.3579 14.3955 22.6873 16.2397C23.0687 18.3656 23.7448 21.0551 24.9149 23.4371C20.3383 20.7562 16.1604 21.2685 13.1266 22.4553C7.52715 17.9814 1.70234 19.7658 1.45097 19.8427C1.11292 19.9537 0.922228 20.3123 1.03491 20.6452C1.14759 20.9782 1.51164 21.166 1.84969 21.0551C2.06639 20.9867 6.9204 19.5268 11.7918 23.0358C9.56411 24.1543 8.22059 25.4691 8.18591 25.5033C7.93455 25.7594 7.93455 26.1607 8.19458 26.4083C8.44595 26.6559 8.86201 26.6559 9.11338 26.3998C9.25206 26.2632 10.7256 24.8288 13.0833 23.7872C13.196 23.7701 13.3086 23.7274 13.404 23.6506C16.6978 22.3016 21.5778 21.8149 26.8999 26.4254C26.9085 26.4339 26.9172 26.4425 26.9259 26.451C26.9345 26.4595 26.9345 26.4595 26.9432 26.4681C26.9605 26.4851 26.9779 26.4937 26.9952 26.5022C26.9952 26.5022 26.9952 26.5022 27.0039 26.5022C27.0212 26.5108 27.0386 26.5193 27.0559 26.5278C27.0646 26.5278 27.0646 26.5278 27.0732 26.5364C27.0906 26.5449 27.1079 26.5449 27.1166 26.5534C27.1252 26.5534 27.1252 26.5535 27.1339 26.562C27.1512 26.5705 27.1686 26.5705 27.1772 26.5705C27.1859 26.5705 27.1859 26.5705 27.1946 26.5705C27.2119 26.5705 27.2293 26.5791 27.2466 26.5791C27.2553 26.5791 27.2553 26.5791 27.2639 26.5791C27.2813 26.5791 27.3073 26.5791 27.3246 26.5791C27.3419 26.5791 27.3679 26.5791 27.3853 26.5791C27.3939 26.5791 27.3939 26.5791 27.4026 26.5791C27.4199 26.5791 27.4373 26.5791 27.4459 26.5705C27.4546 26.5705 27.4633 26.5705 27.4633 26.562C27.4806 26.562 27.4893 26.5534 27.5066 26.5534C27.5153 26.5534 27.524 26.5535 27.524 26.5449C27.5413 26.5364 27.55 26.5364 27.5673 26.5278C27.576 26.5278 27.5846 26.5193 27.5846 26.5193C27.602 26.5108 27.6106 26.5022 27.628 26.4937C27.628 26.4937 27.6366 26.4851 27.6453 26.4851C27.6626 26.4766 27.68 26.4595 27.6973 26.451C27.706 26.4425 27.706 26.4425 27.7147 26.4339C27.7233 26.4254 27.732 26.4168 27.7407 26.4168L27.7493 26.4083C27.758 26.3998 27.7667 26.3998 27.7667 26.3912C27.7753 26.3827 27.7927 26.3742 27.8013 26.3571C27.8013 26.3571 27.8013 26.3571 27.81 26.3485L27.8187 26.34C27.8273 26.3315 27.836 26.3144 27.8447 26.3059C27.8533 26.2973 27.8533 26.2973 27.8533 26.2888C27.862 26.2802 27.8707 26.2632 27.8793 26.2546C27.8793 26.2461 27.888 26.2375 27.888 26.229C27.8967 26.2205 27.8967 26.2034 27.9053 26.1949C27.9053 26.1863 27.914 26.1778 27.914 26.1692C27.914 26.1607 27.9227 26.1522 27.9227 26.1351C27.9227 26.1266 27.9314 26.118 27.9314 26.1095C27.9314 26.1009 27.94 26.0924 27.94 26.0839C27.94 26.0753 27.9487 26.0668 27.9487 26.0497C27.9487 26.0412 27.9487 26.0326 27.9574 26.0241C27.9574 26.0156 27.9574 26.007 27.9574 25.99C27.9574 25.9814 27.9574 25.9729 27.9574 25.9558C27.9574 25.9473 27.9574 25.9387 27.9574 25.9216C27.9574 25.9131 27.9574 25.896 27.9574 25.8875C27.9574 25.879 27.9574 25.8704 27.9574 25.8619C27.9574 25.8533 27.9574 25.8363 27.9574 25.8277C27.9574 25.8192 27.9574 25.8107 27.9487 25.8021C27.9487 25.7936 27.94 25.7765 27.94 25.768C27.94 25.7594 27.9314 25.7509 27.9314 25.7424C27.9314 25.7338 27.9227 25.7167 27.9227 25.7082C27.9227 25.6997 27.914 25.6911 27.914 25.6826C27.914 25.674 27.9053 25.6655 27.9053 25.6484C27.8967 25.6399 27.8967 25.6314 27.888 25.6228C27.8793 25.6143 27.8793 25.6057 27.8707 25.5972C27.862 25.5887 27.862 25.5801 27.8533 25.5631C27.8447 25.5545 27.8447 25.546 27.836 25.5374C27.8273 25.5289 27.8187 25.5204 27.81 25.5118C27.81 25.5033 27.8013 25.5033 27.8013 25.4948C25.5737 22.9334 24.4729 18.895 23.9528 15.9579C23.5454 13.6954 22.956 12.0732 21.9072 10.3485C21.8985 10.3315 21.8812 10.3144 21.8725 10.2973C21.9505 9.59721 21.6125 8.92272 21.4044 8.5129C21.3524 8.40191 21.2918 8.29945 21.2484 8.197L20.8237 7.24929C20.5983 6.75409 20.1736 6.3955 19.6449 6.2589C19.1161 6.12229 18.5614 6.21621 18.1193 6.53211L17.2612 7.14684C17.0965 7.26637 16.9925 7.46274 16.9925 7.66765V9.52037C16.9925 9.87042 17.2872 10.1607 17.6426 10.1607C17.998 10.1607 18.2927 9.87042 18.2927 9.52037V8.04331L18.8821 7.61642C19.0554 7.49689 19.2201 7.51397 19.3068 7.53958C19.3935 7.56519 19.5495 7.62496 19.6362 7.81279L20.0696 8.76904C20.1216 8.88857 20.1823 9.0081 20.2516 9.13616C20.711 10.0241 20.7543 10.3229 20.2343 10.6901L18.0153 12.0988C17.3132 12.5428 16.3944 12.4233 15.831 11.8C14.9295 10.8096 13.7594 9.33254 13.274 7.95794C13.0399 7.29198 13.2133 6.52357 13.7247 5.99422C14.6695 5.0209 16.5764 3.27064 18.7781 2.46808C19.8529 2.07533 21.0664 2.28878 21.9418 3.03158C24.0308 4.79038 34.6056 14.2504 37.5787 27.8768C37.7954 28.8501 37.7174 29.8747 37.362 30.8309L37.3447 30.8822C36.6772 32.7093 35.0564 34.0497 33.1234 34.3912C33.0541 34.3998 32.9847 34.4254 32.9241 34.4595C32.8634 34.4937 26.8999 37.7039 22.1672 37.1917C19.1941 36.8672 15.4149 35.911 12.7799 35.1682C10.4829 34.5193 8.09057 34.7669 6.03628 35.8597C3.8173 37.038 2.23975 38.4382 1.35562 40.0433C1.18226 40.3507 1.29495 40.7434 1.61566 40.9142C1.71101 40.9654 1.82369 40.991 1.9277 40.991C2.15307 40.991 2.37843 40.8715 2.49978 40.658C3.27122 39.2834 4.66675 38.0454 6.66037 36.9867C8.41995 36.0561 10.4656 35.8512 12.4332 36.4062C15.1202 37.166 18.9688 38.1394 22.0372 38.4723C26.9085 39.0017 32.638 36.0817 33.4701 35.6378C35.8105 35.1853 37.7607 33.5374 38.5755 31.3261L38.5928 31.2749C39.0262 30.0881 39.1129 28.816 38.8529 27.6122Z" stroke="#E12656" mask="url(#path-1-outside-1)"/>
</svg>
