<svg width="42" height="43" viewBox="0 0 42 43" fill="none" xmlns="http://www.w3.org/2000/svg">
<path d="M9 4.20312H13.3636" stroke="#E12656" stroke-width="2" stroke-miterlimit="10" stroke-linecap="round"/>
<path d="M11.1819 3.5625V4.20312" stroke="#E12656" stroke-width="2" stroke-miterlimit="10" stroke-linecap="round"/>
<path d="M11.1818 1.64062C4.63639 1.64062 1.72729 4.20312 1.72729 4.20312V25.9844C1.72729 25.9844 1.72729 27.1375 9.72729 27.2656V28.5469H12.6364V27.2656C20.6364 27.1375 20.6364 25.9844 20.6364 25.9844V4.20312C20.6364 4.20312 17.7273 1.64062 11.1818 1.64062Z" stroke="#E12656" stroke-width="2" stroke-miterlimit="10"/>
<path d="M20.6364 9.32812C20.6364 10.0328 18.5273 11.25 15.9091 11.25C13.2909 11.25 12.6364 10.6094 11.1818 9.96875C9.72729 9.32812 9.07275 8.6875 6.45457 8.6875C3.83639 8.6875 1.72729 9.90469 1.72729 10.6094" stroke="#E12656" stroke-width="2" stroke-miterlimit="10"/>
<path d="M25.7273 24.7031C25.7273 21.1797 29 18.2969 33 18.2969C37 18.2969 40.2727 21.1797 40.2727 24.7031" stroke="#E12656" stroke-width="2" stroke-miterlimit="10"/>
<path d="M25.7273 34.9531C25.7273 38.4766 22.4546 41.3594 18.4546 41.3594C14.4546 41.3594 11.1819 38.4766 11.1819 34.9531" stroke="#E12656" stroke-width="2" stroke-miterlimit="10"/>
<path d="M11.1819 28.5469V34.9531" stroke="#E12656" stroke-width="2" stroke-miterlimit="10"/>
<path d="M25.7273 24.7031V35.5938" stroke="#E12656" stroke-width="2" stroke-miterlimit="10"/>
<path d="M39.5454 26.625H41" stroke="#E12656" stroke-width="2" stroke-miterlimit="10"/>
<path d="M4.63647 17.6562H9.00011" stroke="#E12656" stroke-width="2" stroke-miterlimit="10"/>
<path d="M6.81812 19.5781V15.7344" stroke="#E12656" stroke-width="2" stroke-miterlimit="10"/>
<path d="M11.1819 24.0625H18.4546" stroke="#E12656" stroke-width="2" stroke-miterlimit="10"/>
<path d="M14.8184 21.5H18.4547" stroke="#E12656" stroke-width="2" stroke-miterlimit="10"/>
<path d="M11.1819 18.9375H18.4546" stroke="#E12656" stroke-width="2" stroke-miterlimit="10"/>
<path d="M14.8184 16.375H18.4547" stroke="#E12656" stroke-width="2" stroke-miterlimit="10"/>
<path d="M11.1819 13.8125H18.4546" stroke="#E12656" stroke-width="2" stroke-miterlimit="10"/>
</svg>
