<svg width="44" height="41" viewBox="0 0 44 41" fill="none" xmlns="http://www.w3.org/2000/svg">
<g clip-path="url(#clip0)">
<path d="M28.6001 36.0037H33.0001" stroke="#E12656" stroke-width="2" stroke-miterlimit="10"/>
<path d="M17.7467 24.8352L8.28673 26.966C6.8934 26.966 5.50006 27.5538 4.54673 28.509C2.0534 30.9338 0.733398 36.518 0.733398 39.9714" stroke="#E12656" stroke-width="2" stroke-miterlimit="10"/>
<path d="M43.2667 39.8979C43.2667 36.518 41.8733 30.8603 39.5267 28.4356C38.5 27.4069 37.18 26.8925 35.7867 26.8925L26.3267 24.7617" stroke="#E12656" stroke-width="2" stroke-miterlimit="10"/>
<path d="M22 27.9947L24.2 31.2277L30.8 26.0843L26.2533 24.7617L22 27.9947Z" stroke="#E12656" stroke-width="2" stroke-miterlimit="10"/>
<path d="M22 27.9947L19.8 31.2277L13.2 26.0843L17.7466 24.8352L22 27.9947Z" stroke="#E12656" stroke-width="2" stroke-miterlimit="10"/>
<path d="M24.5667 40.7795L22 31.2275L19.4333 40.7795" stroke="#E12656" stroke-width="2" stroke-miterlimit="10"/>
<path d="M16.1333 9.18457V9.91934C15.18 9.91934 15.18 11.2419 15.18 12.638C15.18 14.034 15.1067 15.2097 16.06 15.2097C16.1333 15.2097 16.1333 15.0627 16.1333 15.0627C16.6467 18.957 19.14 22.043 22 22.043C24.86 22.043 27.28 18.957 27.8667 15.0627C27.94 15.0627 27.94 15.2097 27.94 15.2097C28.8933 15.2097 28.82 14.034 28.82 12.638C28.82 11.2419 28.82 9.91934 27.8667 9.91934V9.18457" stroke="#E12656" stroke-width="2" stroke-miterlimit="10"/>
<path d="M36.6667 35.6362V40.0448" stroke="#E12656" stroke-width="2" stroke-miterlimit="10"/>
<path d="M7.3335 35.6362V40.0448" stroke="#E12656" stroke-width="2" stroke-miterlimit="10"/>
<path d="M19.0666 8.8173H16.1333V2.64526C16.1333 1.39615 17.0866 0.734863 18.3333 0.734863H25.52C26.7666 0.734863 27.8666 1.39615 27.8666 2.64526V8.8173H24.9333" stroke="#E12656" stroke-width="2" stroke-miterlimit="10"/>
<path d="M22 10.2868C23.62 10.2868 24.9333 8.97096 24.9333 7.34776C24.9333 5.72456 23.62 4.40869 22 4.40869C20.3799 4.40869 19.0667 5.72456 19.0667 7.34776C19.0667 8.97096 20.3799 10.2868 22 10.2868Z" stroke="#E12656" stroke-width="2" stroke-miterlimit="10"/>
<path d="M21.2668 7.34766H22.7335" stroke="#E12656" stroke-width="2" stroke-miterlimit="10"/>
</g>
<defs>
<clipPath id="clip0">
<rect width="44" height="41" fill="white"/>
</clipPath>
</defs>
</svg>
