<svg width="43" height="43" viewBox="0 0 43 43" fill="none" xmlns="http://www.w3.org/2000/svg">
<path d="M28.4048 34.4623C28.4764 33.5465 27.8324 32.7011 26.9022 32.5602L20.9633 31.5035C20.3193 31.3627 19.6753 31.6444 19.246 32.1376C18.5305 32.9829 18.0296 33.7578 17.3856 34.5328C17.3141 34.6736 17.171 34.6736 17.0279 34.6032C15.1675 33.8987 13.3786 32.7716 11.8045 31.2922C10.3019 29.8128 9.15701 28.0517 8.44148 26.22C8.36992 26.0791 8.44148 25.9383 8.51303 25.8678C9.37167 25.2338 10.1588 24.7407 10.9458 24.0362C11.4467 23.6135 11.6614 22.9795 11.5898 22.3455L10.5165 16.4984C10.3734 15.5826 9.51477 14.9486 8.58458 15.019H8.51303L2.57411 15.3008C2.431 15.3008 2.35945 15.3712 2.2879 15.5121C2.21635 15.8644 2.07324 16.2166 2.00169 16.5688C0.570621 23.1204 2.431 30.1651 7.65439 35.2372C12.8062 40.3094 20.0331 42.141 26.616 40.8025C26.9738 40.7321 27.3315 40.6616 27.6893 40.5207C27.8324 40.5207 27.904 40.3798 27.904 40.2389L28.4048 34.4623Z" stroke="#E12656" stroke-width="2" stroke-miterlimit="10"/>
<path d="M41.2844 9.45373H33.4135V1.70459H26.2582V9.45373H18.3873V16.4984H26.2582V24.2475H33.4135V16.4984H41.2844V9.45373Z" stroke="#E12656" stroke-width="2" stroke-miterlimit="10"/>
</svg>
