<svg width="43" height="65" viewBox="0 0 43 65" fill="none" xmlns="http://www.w3.org/2000/svg">
<path d="M14.2822 48.7711C6.41112 48.7711 0 42.36 0 34.4889V1.35416C0 0.613606 0.613606 0 1.35416 0H27.2102C27.9508 0 28.5644 0.613606 28.5644 1.35416V34.4889C28.5644 42.36 22.1533 48.7711 14.2822 48.7711ZM2.70833 2.70833V34.4889C2.70833 40.8788 7.9134 46.0628 14.2822 46.0628C20.6722 46.0628 25.8561 40.8577 25.8561 34.4889V2.70833H2.70833Z" fill="white"/>
<path d="M26.2794 64.9998C18.5988 64.9998 12.3569 58.7579 12.3569 51.0773H15.0653C15.0653 57.2557 20.1011 62.2915 26.2794 62.2915C32.4578 62.2915 37.4936 57.2557 37.4936 51.0773V27.7603H40.2019V51.0773C40.2019 58.7579 33.9601 64.9998 26.2794 64.9998Z" fill="white"/>
<path d="M7.65933 21.1799H1.354V23.8883H7.65933V21.1799Z" fill="white"/>
<path d="M7.65933 15.5308H1.354V18.2391H7.65933V15.5308Z" fill="white"/>
<path d="M7.65933 9.88135H1.354V12.5897H7.65933V9.88135Z" fill="white"/>
<path d="M7.65933 4.23169H1.354V6.94002H7.65933V4.23169Z" fill="white"/>
<path d="M7.65933 26.8296H1.354V29.5379H7.65933V26.8296Z" fill="white"/>
<path d="M7.65933 32.479H1.354V35.1873H7.65933V32.479Z" fill="white"/>
<path d="M7.65933 38.1282H1.354V40.8365H7.65933V38.1282Z" fill="white"/>
<path d="M42.593 35.1235H35.4202V37.8319H42.593V35.1235Z" fill="white"/>
</svg>
