<svg width="28" height="28" viewBox="0 0 28 28" fill="none" xmlns="http://www.w3.org/2000/svg">
<path d="M12.6551 9.11379V5.75173C12.6551 5.61724 12.5654 5.52759 12.4309 5.52759H11.1309C10.9965 5.52759 10.9068 5.61724 10.9068 5.75173V9.11379C10.9068 9.96552 10.5034 10.7276 9.83095 11.2207C9.38267 11.5793 9.11371 12.1172 9.11371 12.7V21.0828C9.11371 21.3966 9.38267 21.6655 9.69647 21.6655H10.862H12.6551H13.8654C14.1792 21.6655 14.4482 21.3966 14.4482 21.0828V12.7C14.4482 12.1172 14.1792 11.5793 13.7309 11.2207C13.0585 10.7276 12.6551 9.92069 12.6551 9.11379Z" stroke="white" stroke-miterlimit="10"/>
<path d="M10.862 7.27588H12.6551" stroke="white" stroke-miterlimit="10"/>
<path d="M12.6551 14.4482H9.06885V18.931H12.6551V14.4482Z" stroke="white" stroke-miterlimit="10"/>
<path d="M18.4827 17.1379C17.1827 16.8689 16.2413 15.7482 16.2413 14.4034V11.3103H20.724V14.4034C20.724 15.7482 19.7827 16.8689 18.4827 17.1379Z" stroke="white" stroke-miterlimit="10"/>
<path d="M18.4827 17.1379V21.6207" stroke="white" stroke-miterlimit="10"/>
<path d="M16.2413 21.6208H20.724" stroke="white" stroke-miterlimit="10"/>
<path d="M14 27C21.1797 27 27 21.1797 27 14C27 6.8203 21.1797 1 14 1C6.8203 1 1 6.8203 1 14C1 21.1797 6.8203 27 14 27Z" stroke="white" stroke-miterlimit="10"/>
<path d="M23.4138 4.58618L18.0345 9.96549" stroke="white" stroke-miterlimit="10"/>
<path d="M4.58624 23.4138L8.17245 19.8276" stroke="white" stroke-miterlimit="10"/>
</svg>
