<svg width="31" height="28" viewBox="0 0 31 28" fill="none" xmlns="http://www.w3.org/2000/svg">
<path d="M26.2614 27.0001H4.74242C2.68409 27.0001 1 25.2982 1 23.2182V10.9273C1 8.84733 2.68409 7.14551 4.74242 7.14551H26.2614C28.3197 7.14551 30.0038 8.84733 30.0038 10.9273V23.2182C30.0038 25.2982 28.3197 27.0001 26.2614 27.0001Z" stroke="white" stroke-miterlimit="10"/>
<path d="M28.1326 21.9419C28.1326 23.691 26.7292 25.1092 24.9983 25.1092" stroke="white" stroke-miterlimit="10"/>
<path d="M24.9983 9.03638C26.7292 9.03638 28.1326 10.4546 28.1326 12.2037" stroke="white" stroke-miterlimit="10"/>
<path d="M2.87122 12.2037C2.87122 10.4546 4.27462 9.03638 6.0055 9.03638" stroke="white" stroke-miterlimit="10"/>
<path d="M6.0055 25.1092C4.27462 25.1092 2.87122 23.691 2.87122 21.9419" stroke="white" stroke-miterlimit="10"/>
<path d="M21.1156 15.182H17.3732V11.4001H13.6307V15.182H9.88831V18.9638H13.6307V22.7456H17.3732V18.9638H21.1156V15.182Z" stroke="white" stroke-miterlimit="10"/>
<path d="M18.7765 2.89091H12.2272C11.7126 2.89091 11.2916 2.46545 11.2916 1.94545C11.2916 1.42545 11.7126 1 12.2272 1H18.7765C19.2911 1 19.7121 1.42545 19.7121 1.94545C19.7121 2.46545 19.2911 2.89091 18.7765 2.89091Z" stroke="white" stroke-miterlimit="10"/>
<path d="M19.7122 1.94556C20.7413 1.94556 21.5834 2.79647 21.5834 3.83647V5.72738" stroke="white" stroke-miterlimit="10"/>
<path d="M9.42041 5.72738V3.83647C9.42041 2.79647 10.2625 1.94556 11.2916 1.94556" stroke="white" stroke-miterlimit="10"/>
</svg>
