<svg width="32" height="32" viewBox="0 0 32 32" fill="none" xmlns="http://www.w3.org/2000/svg">
<path d="M29.4483 10.8276H21.1724V2.55172C21.1724 1.67241 20.4483 1 19.6207 1H12.3793C11.5 1 10.8276 1.72414 10.8276 2.55172V10.8276H2.55172C1.67241 10.8276 1 11.5517 1 12.3793V19.6207C1 20.5 1.72414 21.1724 2.55172 21.1724H10.8276V29.4483C10.8276 30.3276 11.5517 31 12.3793 31H19.6207C20.5 31 21.1724 30.2759 21.1724 29.4483V21.1724H29.4483C30.3276 21.1724 31 20.4483 31 19.6207V12.3793C31 11.5517 30.2759 10.8276 29.4483 10.8276Z" stroke="white" stroke-miterlimit="10"/>
<path d="M18.069 12.3794C17.2931 12.3794 16.4138 13.3104 16 13.9311C15.5862 13.3104 14.7069 12.3794 13.931 12.3794C12.6896 12.3794 11.8621 13.1553 11.8621 14.4484C11.8621 17.4484 16 20.138 16 20.138C16 20.138 20.1379 17.4484 20.1379 14.4484C20.1379 13.1553 19.3103 12.3794 18.069 12.3794Z" stroke="white" stroke-miterlimit="10"/>
</svg>
