<svg width="28" height="29" viewBox="0 0 28 29" fill="none" xmlns="http://www.w3.org/2000/svg">
<path d="M18.1 18.0999H15.4V15.3999H12.7V18.0999H10V20.7999H12.7V23.4999H15.4V20.7999H18.1V18.0999Z" stroke="white" stroke-miterlimit="10"/>
<path d="M27.1 1.44995H1V6.39995H27.1V1.44995Z" stroke="white" stroke-miterlimit="10"/>
<path d="M26.2 9.5499H25.3V6.3999H2.80002V9.5499H1.90002V11.7999H2.80002V27.5499H25.3V11.7999H26.2V9.5499Z" stroke="white" stroke-miterlimit="10"/>
<path d="M2.79999 11.8H18.1" stroke="white" stroke-miterlimit="10"/>
<path d="M10 9.55005H25.75" stroke="white" stroke-miterlimit="10"/>
<path d="M3.25 2.80005V5.05005" stroke="white" stroke-miterlimit="10"/>
<path d="M5.95001 2.80005V5.05005" stroke="white" stroke-miterlimit="10"/>
<path d="M8.65002 2.80005V5.05005" stroke="white" stroke-miterlimit="10"/>
<path d="M11.35 2.80005V5.05005" stroke="white" stroke-miterlimit="10"/>
<path d="M14.05 2.80005V5.05005" stroke="white" stroke-miterlimit="10"/>
<path d="M16.75 2.80005V5.05005" stroke="white" stroke-miterlimit="10"/>
<path d="M19.45 2.80005V5.05005" stroke="white" stroke-miterlimit="10"/>
<path d="M22.15 2.80005V5.05005" stroke="white" stroke-miterlimit="10"/>
<path d="M24.85 2.80005V5.05005" stroke="white" stroke-miterlimit="10"/>
</svg>
