<svg width="21" height="35" viewBox="0 0 21 35" fill="none" xmlns="http://www.w3.org/2000/svg">
<path d="M6.80939 23.7146V32.4287C6.80939 33.0677 7.33223 33.5905 7.97126 33.5905C8.61029 33.5905 9.13314 33.0677 9.13314 32.4287V23.7146H11.4569V32.4287C11.4569 33.0677 11.9797 33.5905 12.6188 33.5905C13.2578 33.5905 13.7806 33.0677 13.7806 32.4287V23.7146" stroke="white" stroke-miterlimit="10"/>
<path d="M18.4281 23.1338C19.0672 23.1338 19.59 22.6109 19.59 21.9719L16.6853 11.7474C16.1044 9.77223 15.2911 8.61035 13.5483 8.61035H10.295H7.04175C5.29894 8.61035 4.48563 9.77223 3.90469 11.7474L1 21.9719C1 22.6109 1.52284 23.1338 2.16188 23.1338" stroke="white" stroke-miterlimit="10"/>
<path d="M7.39029 11.5149L6.80935 16.1624L3.90466 23.7146H16.6853L13.7806 16.1624L13.1997 11.5149" stroke="white" stroke-miterlimit="10"/>
<path d="M7.85507 2.33618C7.5646 2.80093 7.39032 3.38187 7.39032 3.96281C7.39032 5.58943 8.66838 6.86749 10.295 6.86749C11.9216 6.86749 13.1997 5.58943 13.1997 3.96281C13.1997 3.38187 13.0254 2.80093 12.7349 2.33618" stroke="white" stroke-miterlimit="10"/>
<path d="M12.7349 5.53131C13.0254 5.06656 13.1997 4.48563 13.1997 3.90469C13.1997 2.27806 11.9216 1 10.295 1C8.66838 1 7.39032 2.27806 7.39032 3.90469C7.39032 4.48563 7.5646 5.06656 7.85507 5.53131" stroke="white" stroke-miterlimit="10"/>
</svg>
