<svg width="30" height="30" viewBox="0 0 30 30" fill="none" xmlns="http://www.w3.org/2000/svg">
<path d="M14.7205 8.63898H12.1797V6.09814H9.13068V8.63898H6.58984V11.688H9.13068V14.2288H12.1797V11.688H14.7205V8.63898Z" stroke="white" stroke-miterlimit="10"/>
<path d="M1 0V29.9819" stroke="white" stroke-miterlimit="10"/>
<path d="M18.2777 19.3104C18.2777 19.3104 16.245 17.2777 12.1797 17.2777C8.11434 17.2777 1 18.8022 1 18.8022V2.54086C1 2.54086 8.11434 1.01636 12.1797 1.01636C16.245 1.01636 18.2777 3.04903 18.2777 3.04903V19.3104Z" stroke="white" stroke-miterlimit="10" stroke-linejoin="round"/>
<path d="M18.2776 5.74227C21.8856 6.4537 26.0018 6.04717 29 4.57349C29 9.65516 29 14.7368 29 19.8185C24.9346 21.8512 19.294 21.8512 15.2286 19.8185C15.2286 19.1579 15.2286 18.4464 15.2286 17.7858" stroke="white" stroke-miterlimit="10" stroke-linejoin="round"/>
</svg>
