<svg width="30" height="28" viewBox="0 0 30 28" fill="none" xmlns="http://www.w3.org/2000/svg">
<path d="M19.1284 23.8989H21.9908" stroke="white" stroke-miterlimit="10"/>
<path d="M12.0679 16.6477L5.91376 18.0312C5.00734 18.0312 4.10092 18.4128 3.48073 19.033C1.85872 20.6073 1 24.233 1 26.4752" stroke="white" stroke-miterlimit="10"/>
<path d="M28.6698 26.4276C28.6698 24.2331 27.7634 20.5597 26.2368 18.9854C25.5689 18.3175 24.7102 17.9836 23.8038 17.9836L17.6497 16.6001" stroke="white" stroke-miterlimit="10"/>
<path d="M14.835 18.6992L16.2662 20.7983L20.5597 17.4588L17.6019 16.6001L14.835 18.6992Z" stroke="white" stroke-miterlimit="10"/>
<path d="M14.8349 18.6991L13.4037 20.7982L9.11011 17.4587L12.0679 16.6477L14.8349 18.6991Z" stroke="white" stroke-miterlimit="10"/>
<path d="M16.5046 26.9999L14.8349 20.7981L13.1652 26.9999" stroke="white" stroke-miterlimit="10"/>
<path d="M11.0184 6.48633V6.96339C10.3982 6.96339 10.3982 7.82211 10.3982 8.72853C10.3982 9.63495 10.3505 10.3983 10.9707 10.3983C11.0184 10.3983 11.0184 10.3028 11.0184 10.3028C11.3523 12.8313 12.9743 14.835 14.8349 14.835C16.6954 14.835 18.2697 12.8313 18.6514 10.3028C18.6991 10.3028 18.6991 10.3983 18.6991 10.3983C19.3193 10.3983 19.2716 9.63495 19.2716 8.72853C19.2716 7.82211 19.2716 6.96339 18.6514 6.96339V6.48633" stroke="white" stroke-miterlimit="10"/>
<path d="M24.3761 23.6604V26.5228" stroke="white" stroke-miterlimit="10"/>
<path d="M5.29358 23.6604V26.5228" stroke="white" stroke-miterlimit="10"/>
<path d="M12.9267 6.24771H11.0184V2.24037C11.0184 1.42936 11.6386 1 12.4496 1H17.1249C17.9359 1 18.6515 1.42936 18.6515 2.24037V6.24771H16.7432" stroke="white" stroke-miterlimit="10"/>
<path d="M14.8349 7.20177C15.8888 7.20177 16.7431 6.34741 16.7431 5.29351C16.7431 4.23961 15.8888 3.38525 14.8349 3.38525C13.781 3.38525 12.9266 4.23961 12.9266 5.29351C12.9266 6.34741 13.781 7.20177 14.8349 7.20177Z" stroke="white" stroke-miterlimit="10"/>
<path d="M14.3578 5.29346H15.3119" stroke="white" stroke-miterlimit="10"/>
</svg>
