<svg width="24" height="29" viewBox="0 0 24 29" fill="none" xmlns="http://www.w3.org/2000/svg">
<path d="M12.0577 27.55C12.5463 27.55 12.9423 27.1471 12.9423 26.65C12.9423 26.1529 12.5463 25.75 12.0577 25.75C11.5692 25.75 11.1731 26.1529 11.1731 26.65C11.1731 27.1471 11.5692 27.55 12.0577 27.55Z" stroke="white" stroke-miterlimit="10"/>
<path d="M6.30774 23.05H17.8077" stroke="white" stroke-miterlimit="10"/>
<path d="M12.0577 25.75V1" stroke="white" stroke-miterlimit="10"/>
<path d="M4.53849 27.55C5.02704 27.55 5.4231 27.1471 5.4231 26.65C5.4231 26.1529 5.02704 25.75 4.53849 25.75C4.04993 25.75 3.65387 26.1529 3.65387 26.65C3.65387 27.1471 4.04993 27.55 4.53849 27.55Z" stroke="white" stroke-miterlimit="10"/>
<path d="M4.53851 25.75V24.85C4.53851 23.86 5.33467 23.05 6.30774 23.05" stroke="white" stroke-miterlimit="10"/>
<path d="M19.577 27.55C20.0656 27.55 20.4616 27.1471 20.4616 26.65C20.4616 26.1529 20.0656 25.75 19.577 25.75C19.0884 25.75 18.6924 26.1529 18.6924 26.65C18.6924 27.1471 19.0884 27.55 19.577 27.55Z" stroke="white" stroke-miterlimit="10"/>
<path d="M17.8077 23.05C18.7808 23.05 19.577 23.86 19.577 24.85V25.75" stroke="white" stroke-miterlimit="10"/>
<path d="M23.1154 2.34995C23.1154 1.85495 22.7173 1.44995 22.2308 1.44995C21.7442 1.44995 21.3462 1.85495 21.3462 2.34995C21.3462 3.11495 20.7712 3.69995 20.0192 3.69995C19.2673 3.69995 18.6923 3.11495 18.6923 2.34995H5.42308C5.42308 3.11495 4.84808 3.69995 4.09615 3.69995C3.34423 3.69995 2.76923 3.11495 2.76923 2.34995C2.76923 1.85495 2.37115 1.44995 1.88462 1.44995C1.39808 1.44995 1 1.85495 1 2.34995" stroke="white" stroke-miterlimit="10" stroke-linejoin="round"/>
<path d="M4.09613 4.6001V6.4001" stroke="white" stroke-miterlimit="10"/>
<path d="M22.6731 12.7001C22.6731 12.7001 21.7885 13.6001 20.0193 13.6001C18.25 13.6001 17.3654 12.7001 17.3654 12.7001V6.40015H22.6731V12.7001Z" stroke="white" stroke-miterlimit="10"/>
<path d="M20.0193 4.6001V6.4001" stroke="white" stroke-miterlimit="10"/>
<path d="M17.3654 9.1001H22.6731" stroke="white" stroke-miterlimit="10"/>
<path d="M1.44232 16.7501C2.19424 16.7501 2.76924 16.1651 2.76924 15.4001V7.75015C2.76924 6.98515 3.34424 6.40015 4.09617 6.40015C4.84809 6.40015 5.42309 6.98515 5.42309 7.75015V13.6001C5.42309 15.8501 9.71348 16.7501 12.0577 16.7501C14.4019 16.7501 20.0192 15.8501 20.0192 13.6001" stroke="white" stroke-miterlimit="10"/>
</svg>
