<svg width="17" height="14" viewBox="0 0 17 14" fill="none" xmlns="http://www.w3.org/2000/svg">
<path d="M7.57551 7.32945C8.04693 6.85151 8.50361 6.38841 8.96029 5.92532C10.6191 4.25401 12.2779 2.57974 13.9367 0.908441C14.2932 0.549245 14.7528 0.549245 15.1122 0.905473C15.457 1.24983 15.7987 1.59715 16.1405 1.94447C16.5029 2.31554 16.5059 2.76973 16.1405 3.13783C14.8235 4.46775 13.5035 5.7947 12.1836 7.12462C10.8577 8.46047 9.53188 9.79632 8.20603 11.1322C7.79354 11.5478 7.36338 11.5448 6.95089 11.1292C5.57495 9.74289 4.20196 8.35954 2.82602 6.97322C2.4371 6.58137 2.43416 6.13905 2.81718 5.7472C3.15895 5.39988 3.50368 5.05256 3.8484 4.7082C4.19312 4.36682 4.65569 4.36682 5.00041 4.71117C5.81655 5.5305 6.63269 6.35279 7.44882 7.17508C7.49302 7.22258 7.52837 7.27304 7.57551 7.32945Z" fill="#82B440"/>
<path d="M0.00626125 7.00284C0.00626125 5.64324 0.00626125 4.28364 0.00626125 2.92107C0.00626125 1.7277 0.557226 0.866821 1.57666 0.296856C1.98325 0.068277 2.43404 0 2.89662 0C5.1211 0 7.34558 0 9.57007 0C10.1063 0 10.6396 0.00296856 11.1758 0.00593713C11.5176 0.00890569 11.8446 0.0890569 12.1599 0.225611C12.428 0.341385 12.4752 0.584807 12.2719 0.792607C12.1304 0.938066 11.9861 1.07759 11.8446 1.22305C11.7386 1.33289 11.6266 1.36257 11.4734 1.32992C11.273 1.29133 11.0639 1.27055 10.8606 1.27055C8.31198 1.26758 5.7634 1.26758 3.21777 1.27351C2.95554 1.27351 2.68153 1.27351 2.42815 1.33289C1.73576 1.49913 1.27024 2.15221 1.26729 2.91216C1.26435 4.14412 1.26729 5.37607 1.26729 6.60803C1.26729 8.09231 1.27024 9.57659 1.26729 11.0609C1.26729 11.6249 1.47943 12.0761 1.92433 12.4175C2.20128 12.6283 2.51359 12.7203 2.85831 12.7203C4.50826 12.7203 6.15821 12.7203 7.80816 12.7203C8.86884 12.7203 9.92952 12.7203 10.9902 12.7203C11.9625 12.7203 12.6343 12.0405 12.6372 11.0609C12.6372 10.2683 12.6401 9.47863 12.6343 8.68602C12.6343 8.54056 12.6755 8.43072 12.7786 8.32979C12.9672 8.14871 13.1499 7.96169 13.3325 7.77467C13.4357 7.67077 13.5506 7.62327 13.692 7.67671C13.8452 7.73608 13.9041 7.85482 13.9041 8.01513C13.9012 9.07787 13.913 10.1436 13.8982 11.2063C13.8776 12.744 12.6077 13.9908 11.0845 13.9908C8.35912 13.9908 5.63376 13.9671 2.91135 13.9998C1.3822 14.0205 -0.0261484 12.7322 0.000368579 11.0817C0.0239393 9.72205 0.00626125 8.36245 0.00626125 7.00284Z" fill="#82B440"/>
</svg>
