<?xml version="1.0" encoding="utf-8"?>
<!-- Generator: Adobe Illustrator 24.1.0, SVG Export Plug-In . SVG Version: 6.00 Build 0)  -->
<svg version="1.1" id="Layer_1" xmlns="http://www.w3.org/2000/svg" xmlns:xlink="http://www.w3.org/1999/xlink" x="0px" y="0px"
	 viewBox="0 0 828.91 360.6" style="enable-background:new 0 0 828.91 360.6;" xml:space="preserve">
<style type="text/css">
	.st0{fill:#CF3B59;}
	.st1{fill:#8DB252;}
</style>
<g>
	<g>
		<path class="st0" d="M651.93,208.02c6.83-8.09,11.19-16.99,13.04-26.49c2.39-12.34-0.29-22.45-8.06-30.34
			c-7.53-8.09-19.29-12.14-35.27-12.14c-20.55,0-38.67,7.93-54.35,23.67c4.8,2.39,8.99,5.83,12.47,10.25
			c3.65,4.65,6.1,9.9,7.3,15.59l0.08,0.05c8.71-10.52,17.62-15.78,27.13-15.78c8.9,0,13.38,5.06,11.92,12.54
			c-1.37,7.08-8.17,13.96-23.44,25.89l-50.87,39.04l-5.7,29.32H646.3l6.25-32.16h-47.33l9.23-6.87
			C632.94,226.63,645.34,215.91,651.93,208.02z"/>
	</g>
	<path class="st0" d="M765.41,221.37l-6.33,32.56h-12.94l-4.99,25.69h-37.62l4.99-25.69h-62.9l6.33-32.56l74.14-80.7h42.07
		l-15.69,80.7H765.41z M714.85,221.37l6.29-32.36l-29.96,32.36H714.85z"/>
	<path class="st1" d="M250.83,221.87c-7.09,8-17.48,13.65-30.19,13.65c-9.41,0-16.7-3.06-22.01-9.06c-5.19-6-6.88-13.65-5.07-22.95
		c1.74-8.94,6.38-16.47,13.81-22.59c7.45-6.24,15.81-9.3,25.11-9.3c9.06,0,15.79,2.94,20.27,8.94c4.6,6,5.98,13.42,4.22,22.48
		c-0.71,3.65-1.1,5.65-1.38,6.47h-42.95c1.14,5.65,5.28,9.18,11.4,9.18c5.53,0,10.41-2.12,14.67-6.47L250.83,221.87z M215.69,195.63
		h22.48c-0.78-5.06-3.93-7.65-9.34-7.65C223.29,187.98,218.91,190.57,215.69,195.63z"/>
	<path class="st1" d="M300.82,229.87c-5.16,2.94-10.52,4.47-15.93,4.47c-8.35,0-14.84-2.94-19.56-8.94s-6.24-13.3-4.55-22.01
		c1.67-8.59,6.03-15.89,13.08-21.89s14.68-8.94,23.04-8.94c5.41,0,10.18,1.53,14.19,4.47l4.6-23.65h20.71l-15.67,80.61h-20.71
		L300.82,229.87z M296.13,191.04c-3.41,0-6.72,1.29-9.68,3.77s-4.7,5.41-5.39,8.94c-0.71,3.65-0.1,6.59,1.89,9.06
		s4.7,3.65,8.23,3.65c6.94,0,13.57-5.65,14.94-12.71C307.51,196.69,303.07,191.04,296.13,191.04z"/>
	<path class="st1" d="M383.53,204.57h-26.95l-5.72,29.42h-23.18l15.67-80.61h23.18l-5.97,30.71h26.95l5.97-30.71h23.18l-15.67,80.61
		h-23.18L383.53,204.57z"/>
	<path class="st1" d="M470.19,221.87c-7.09,8-17.48,13.65-30.19,13.65c-9.41,0-16.7-3.06-22.01-9.06c-5.19-6-6.88-13.65-5.07-22.95
		c1.74-8.94,6.38-16.47,13.81-22.59c7.45-6.24,15.81-9.3,25.11-9.3c9.06,0,15.79,2.94,20.27,8.94c4.6,6,5.98,13.42,4.22,22.48
		c-0.71,3.65-1.1,5.65-1.38,6.47h-42.95c1.14,5.65,5.28,9.18,11.4,9.18c5.53,0,10.41-2.12,14.67-6.47L470.19,221.87z M435.05,195.63
		h22.48c-0.78-5.06-3.93-7.65-9.34-7.65C442.65,187.98,438.27,190.57,435.05,195.63z"/>
	<path class="st1" d="M475.13,233.99l15.67-80.61h20.71l-15.67,80.61H475.13z"/>
	<path class="st1" d="M568.75,181.62c-4.72-6-11.21-8.94-19.56-8.94c-5.41,0-10.77,1.53-15.93,4.47l0.8-4.12h-20.71l-14.49,74.49
		H180.88l22.78-166.56l-65.44,128.3l-13.8-89.69L88.4,213.4H63.48l-2.72,16h38.63l18.38-47.86l12.18,79.17l45.42-89.07l-12.78,91.88
		h353.82l6.57-33.53c4.01,2.94,8.78,4.47,14.19,4.47c8.35,0,15.99-2.94,23.04-8.94s11.41-13.3,13.08-21.89
		C574.97,195.04,573.47,187.62,568.75,181.62z M552.94,203.63c-0.69,3.53-2.57,6.59-5.53,9.06c-2.95,2.47-6.12,3.65-9.53,3.65
		c-6.94,0-11.38-5.65-10-12.71c1.37-7.06,8-12.71,14.94-12.71c3.41,0,6.1,1.29,8.09,3.77C552.9,197.16,553.6,200.22,552.94,203.63z"
		/>
</g>
</svg>
